<svg width="428" height="264" viewBox="0 0 428 264" fill="none" xmlns="http://www.w3.org/2000/svg">
<path opacity="0.62" d="M336.828 33.2687C336.58 33.1824 336.172 33.1074 335.733 33.0287C334.431 32.7999 332.815 32.5148 332.515 31.3446C332.429 31.0033 330.884 31.1533 330.141 31.2208C328.776 31.3521 327.602 31.4609 327.103 30.842C326.41 29.9868 322.082 26.9787 321.26 26.5587C320.878 26.3524 318.05 25.6097 315.778 25.0096C313.756 24.4845 311.847 23.9744 311.247 23.7569C310.981 23.6631 310.677 23.5656 310.347 23.4718C309.001 23.0555 307.328 22.5529 306.406 21.3151C305.989 20.7525 305.333 20.61 304.632 20.46C303.833 20.2874 302.914 20.0886 302.644 19.0909C302.434 18.322 302.142 17.4969 301.571 17.1931C301.23 17.013 300.78 17.0205 300.206 17.2118C300 17.2793 299.82 17.3431 299.655 17.4031C298.192 17.9095 297.701 18.0858 296.606 17.2681C296.205 16.9643 295.039 16.773 293.917 16.5817C292.466 16.3417 290.966 16.0904 290.137 15.5165C289.518 15.0889 288.588 14.8414 287.504 14.5488C286.267 14.2187 284.856 13.8437 283.544 13.086C280.967 11.6045 273.771 7.99629 272.211 7.83126C271.862 7.79375 271.431 7.77499 270.928 7.75249C268.974 7.66622 266.015 7.52745 262.606 6.15843C261.597 5.7496 260.652 5.38953 259.816 5.06697C257.089 4.02051 255.117 3.25536 253.605 2.09264C251.847 0.734874 247.264 0.29979 245.449 0.532335C244.507 0.648608 243.986 0.884904 243.123 1.27498C242.452 1.57879 241.616 1.96136 240.266 2.43396C238.919 2.90655 237.265 3.86673 235.668 4.78941C233.181 6.22594 231.614 7.09986 230.702 6.88982C230.609 6.86357 230.522 6.84481 230.444 6.82606C229.93 6.70229 229.81 6.67603 229.532 6.82606C229.142 7.02485 228.516 7.5462 227.383 8.48763C227.117 8.70893 226.825 8.95272 226.502 9.21903C223.371 11.8145 216.796 16.7692 214.325 16.9493C212.967 17.0468 211.61 18.9034 209.888 21.2439C209.097 22.3166 208.205 23.5356 207.173 24.7658C203.918 28.6591 199.016 33.0849 195.937 34.0151C194.809 34.3564 193.95 34.9265 192.948 35.5829C191.475 36.5618 189.802 37.6646 186.738 38.3584C184.514 38.8648 184.03 39.3749 183.678 39.7387C183.115 40.3351 182.718 40.6051 180.029 40.3951C177.557 40.2038 175.708 40.5489 173.931 40.8789C172.269 41.194 170.709 41.4866 168.875 41.269C168.02 41.1715 167.387 41.0702 166.888 40.9915C165.226 40.7364 164.825 40.6689 161.304 41.2165C158.817 41.5953 158.157 41.9179 157.523 42.2255C156.946 42.503 156.413 42.7656 154.827 43.0244C153.552 43.2344 152.472 43.6057 151.425 43.9733C149.723 44.5697 148.118 45.121 145.886 44.9522C144.701 44.8585 143.542 44.9035 142.421 44.941C140.219 45.0235 138.318 45.091 136.949 44.1046C136.278 43.632 134.984 43.8795 133.615 44.1458C131.553 44.5472 129.216 45.0085 128.155 43.0319C127.45 41.7191 126.216 41.5428 124.337 41.2765C122.398 41.0027 119.979 40.6614 117.099 38.9023C114.448 37.2782 112.779 37.402 111.009 37.5333C109.13 37.6683 107.191 37.8108 104.228 35.7592C101.134 33.6213 98.3026 33.1374 96.0299 32.7549C94.2336 32.451 92.8122 32.211 91.8784 31.2658C91.0308 30.4182 90.4758 30.3806 89.8945 30.3431C89.1894 30.2981 88.4581 30.2569 87.5468 28.9591C86.8643 27.9877 84.9554 28.389 82.9377 28.8166C81.0663 29.2142 79.1274 29.623 77.6836 29.0529C76.356 28.5315 75.7259 28.4003 75.2534 28.3102C74.6384 28.1865 74.3046 28.1002 73.4795 27.5226C72.4332 26.7837 71.7019 26.0486 71.2856 25.3209C71.1731 25.4822 71.0493 25.6172 70.8956 25.7222C70.5243 25.981 70.0593 26.0448 69.5155 25.8948C69.1179 25.7898 68.8104 25.7222 68.5629 25.6585C67.5466 25.4222 67.4603 25.3659 66.774 24.432C66.0052 23.3893 63.3088 21.859 61.4636 22.4103C60.6348 22.6579 60.2635 23.0742 59.9035 23.4718C59.4197 24.0119 58.9134 24.5745 57.5483 24.477C56.712 24.4207 56.6483 24.582 56.5395 24.8783C56.4045 25.2421 56.1982 25.7898 55.1707 25.9023C54.4956 25.9773 54.2593 26.2623 54.1243 26.4349C54.0381 26.5474 53.8693 26.7462 53.5918 26.6899C53.288 26.6262 53.2318 26.4161 53.0518 25.7898C52.8605 25.1371 52.8605 24.6983 52.853 24.3832C52.853 24.0044 52.853 23.9481 52.6167 23.7756C52.0842 23.378 51.5891 22.7029 51.7617 22.144C51.8067 21.9903 51.9792 21.6339 52.5492 21.6039C52.7405 21.5964 52.9017 21.4727 52.9842 21.2814C53.0818 21.0413 53.0293 20.76 52.8155 20.5237C52.2942 19.9461 49.9203 19.2485 48.8852 20.1562C48.3414 20.6325 47.3363 21.0863 46.2713 21.5702C45.4462 21.949 43.9161 22.6354 43.7923 22.9692C43.8711 23.4343 43.7436 23.8244 43.6498 24.1094C43.6236 24.1769 43.5936 24.2632 43.5823 24.327C43.6236 24.3382 43.7061 24.357 43.8373 24.3757C44.1898 24.4207 44.5949 24.3757 44.9474 24.3495C45.5812 24.2857 46.1325 24.2445 46.4363 24.627C46.71 24.9871 46.5413 25.4634 46.485 25.6135C46.4063 25.8535 46.3313 26.0973 46.2563 26.3261C46.0275 27.095 45.84 27.7026 45.3374 27.9127C45.0787 28.0177 44.7861 27.9877 44.4711 27.8189C44.2236 27.6839 43.9461 27.5976 43.7211 27.5338C43.361 27.4288 43.0273 27.3276 42.9785 26.9712C42.9598 26.7799 43.0423 26.6224 43.1698 26.4986C43.0573 26.5249 42.941 26.5624 42.8172 26.6037C42.2547 26.7949 41.7522 26.9375 41.3959 26.6824C41.0321 26.4236 41.0321 25.9135 41.0321 25.3697V25.3022C41.0321 25.0359 41.0321 24.6083 40.9759 24.4357C40.8784 24.4657 40.6346 24.5858 40.1395 25.0171C39.397 25.681 38.6282 25.9848 37.9531 26.2586C37.1168 26.5924 36.5168 26.8362 36.1793 27.6164C35.4367 29.3642 33.404 31.2358 31.5514 31.2358C31.1914 31.2358 30.8276 31.2658 30.4788 31.2996C29.35 31.3933 28.0786 31.4984 27.7149 30.1331C27.4674 29.2142 26.9948 26.5061 28.0561 26.1611C28.2662 26.0936 28.9225 25.6172 29.2412 24.8971C29.4625 24.387 29.4625 23.8806 29.2412 23.3855C28.93 22.6992 28.4799 22.5416 27.9511 22.3616C27.3886 22.1703 26.676 21.9265 26.4623 20.8875C26.1473 19.3385 25.0784 17.9732 24.2309 17.5456L24.1334 17.5006C23.0608 16.968 23.0233 16.8143 22.8883 15.269L22.877 15.1339C22.8283 14.5751 22.3145 13.8774 21.4894 13.2698C20.5218 12.5459 19.3517 12.1183 18.7142 12.2421C17.9041 12.4034 14.7614 12.696 11.8849 12.756C5.88075 12.8797 5.43821 11.9946 5.2732 11.657C5.05193 11.2032 4.45564 11.2482 4.11437 11.3082C2.98178 11.5257 1.79669 12.5122 1.72919 13.2961C1.67293 13.9299 1.44417 14.6651 1.2079 15.4452C0.806619 16.758 0.352835 18.2395 0.82912 19.0159C1.2004 19.6236 1.87545 20.3249 2.53175 21.0001C3.41306 21.9115 4.17437 22.6991 4.32438 23.3555C4.41814 23.7756 4.36938 24.267 4.32438 24.7395C4.24562 25.5272 4.21937 26.0598 4.54565 26.2286C5.46447 26.6862 5.69323 28.6966 5.40071 29.7805C5.14569 30.692 4.6019 30.752 4.37313 30.7332C4.31688 30.7332 4.20437 30.7257 4.15187 30.9208C4.03561 31.3558 4.39939 32.2335 5.56947 32.8186C5.87325 32.9687 6.13952 33.1037 6.37578 33.22C6.79581 33.43 7.20459 33.6363 7.44086 33.7225C7.44086 33.6963 7.44086 33.6663 7.43336 33.6288C7.37711 33.0699 7.62463 32.6311 8.09716 32.4623C8.6747 32.2635 9.55227 32.5411 10.1373 33.4712C10.2236 33.6213 10.3286 33.7751 10.4298 33.9288C12.935 34.8515 14.9602 40.0913 14.8439 41.8054C14.8439 41.8916 14.8627 41.9216 14.8739 41.9366C15.0727 42.1617 15.9465 42.1842 16.6478 42.2029C18.1029 42.248 19.9218 42.2967 20.4281 43.7332C20.9681 45.2823 22.4307 45.5936 24.2834 45.9874C24.7559 46.085 25.2434 46.19 25.7385 46.3288C27.2986 46.7301 27.8574 45.9649 28.975 44.1721C29.3087 43.6395 29.68 43.0319 30.1413 42.4167C31.5927 40.4514 36.693 41.3065 41.7859 42.3417C42.9148 42.5705 43.8861 42.7768 44.3286 42.7956C46.0462 42.8931 46.3725 42.548 47.6889 40.3613C49.0915 38.0246 52.2192 37.9196 53.9743 38.4222C55.7407 38.9248 63.74 47.1989 65.9415 50.0982C67.6966 52.4087 73.6033 52.57 77.136 52.6637C78.2574 52.6937 79.1424 52.72 79.7312 52.795C80.1025 52.8438 80.455 52.9075 80.7926 52.9675C81.8089 53.1401 82.6152 53.2901 83.1177 52.9075C83.564 52.5737 83.849 51.7973 83.9916 50.5221C84.0703 49.7719 84.1078 49.2131 84.1266 48.7667C84.2203 47.1502 84.3366 47.0001 86.028 46.5125C86.4555 46.3963 86.988 46.235 87.6706 46.0099C89.1519 45.5186 90.1045 45.4511 90.7683 45.8112C91.5296 46.22 91.7734 47.0939 92.0509 48.1103C92.1859 48.6129 92.3359 49.1756 92.5722 49.7644C93.2585 51.486 95.7562 51.3435 98.1639 51.201C99.1427 51.1372 100.061 51.0884 100.898 51.1522C104.153 51.396 109.951 61.0391 111.657 63.9872C112.73 65.8476 118.989 64.7561 122.353 64.1672C123.76 63.9272 124.776 63.7471 125.248 63.7771C125.402 63.7884 125.638 63.8559 125.837 64.111C127.217 65.8701 125.811 77.051 125.65 77.9887C125.432 79.2302 127.056 82.9359 128.365 85.9215C128.905 87.1479 129.407 88.3069 129.801 89.3009C130.754 91.7313 131.605 91.5701 133.004 91.3075C133.469 91.2212 134.002 91.12 134.579 91.12C135.997 91.12 138.502 91.6976 140.917 92.2489C142.331 92.5715 143.786 92.9016 144.964 93.1041C147.12 93.4829 150.233 96.5135 152.97 99.1953C154.388 100.576 155.734 101.892 156.526 102.387C158.018 103.31 161.746 104.968 164.401 106.13C164.165 104.21 163.839 99.4466 166.235 99.0415C166.415 99.0115 166.599 98.9777 166.786 98.944C169.277 98.5277 172.097 98.0626 172.378 95.0132C173.158 86.379 174.403 82.0732 176.282 81.4768C177.107 81.218 178.199 80.4679 179.245 79.7403C181.285 78.3337 183.396 76.8747 184.612 78.18C184.84 78.4275 185.065 78.7013 185.313 78.9864C186.712 80.6592 188.467 82.7408 192.371 82.1182C193.635 81.9194 194.632 81.6831 195.517 81.4731C197.996 80.8767 199.489 80.5317 202.613 82.0507C207.143 84.2524 212.765 84.8037 218.038 83.5547C223.307 82.3095 229.274 80.903 229.48 78.0562C229.652 75.6895 231.719 66.6277 234.059 66.6277C234.457 66.6277 235.083 66.7027 235.87 66.7965C238.413 67.1003 243.146 67.6592 243.896 65.7875C244.77 63.5934 247.417 59.8501 249.896 58.8337C250.684 58.5111 251.397 58.4811 252.015 58.7512C252.345 58.8937 252.709 59.085 253.08 59.3288C254.569 59.1938 261.62 58.5974 265.704 59.2125C265.809 59.2125 268.314 59.31 268.685 56.8683C268.839 55.8706 269.008 53.3351 269.199 50.402C269.788 41.5128 270.103 38.2797 270.71 37.8183C271.112 37.5145 271.858 37.4845 272.878 37.4395C274.521 37.372 276.561 37.2857 277.172 35.988C278.001 34.2514 280.476 32.8711 282.389 32.5411C283.499 32.3498 284.361 32.5148 284.86 33.0174C285.052 33.2087 285.28 33.4637 285.543 33.7413C287.444 35.838 289.627 37.9571 291.348 36.6106C292.117 36.0105 292.818 35.6017 293.43 35.2416C294.817 34.4314 295.586 33.9851 295.586 32.211C295.586 30.4369 295.901 26.6449 297.112 25.7973C297.379 25.606 297.701 25.561 298.005 25.6735C298.706 25.9285 298.62 26.9487 298.508 28.3515C298.391 29.788 298.241 31.5809 299.018 32.2298C299.389 32.5336 299.996 32.5823 300.833 32.361C302.952 31.7984 304.155 30.692 305.029 29.8818C305.697 29.2667 306.233 28.7828 306.871 28.8841C307.373 28.9591 307.808 29.368 308.326 30.2494C310.16 33.3812 313.254 33.6813 315.526 32.9199C318.433 31.9522 322.194 34.4202 324.017 37.2595C325.566 39.6825 326.155 39.7087 329.954 39.8925L330.61 39.9225C331.259 39.9525 331.941 39.9788 332.594 40.005C334.72 40.0838 336.697 40.1588 338.234 40.4401C339.716 39.7837 341.902 38.4485 342.041 37.3795C340.533 35.6954 337.702 33.5688 336.858 33.25V33.2575L336.828 33.2687Z" fill="#79ADEE" fill-opacity="0.4"/>
<path opacity="0.62" d="M276.848 191.197C276.432 190.848 276.05 190.522 275.727 190.274C274.531 189.325 271.898 185.079 269.783 181.67C268.673 179.877 267.521 178.032 267.188 177.672C266.426 177.608 262.436 179.438 259.511 180.777C256.451 182.176 253.555 183.496 252.198 183.815C250.146 184.299 250.499 187.641 250.735 189.846C250.803 190.48 250.859 191.017 250.859 191.433C250.859 193.597 250.724 195.915 249.726 196.688C249.385 197.153 248.995 200.915 248.995 209.988C248.995 211.271 250.36 212.505 251.35 213.405C251.74 213.757 252.074 214.061 252.31 214.339C253.03 215.205 252.937 216.934 252.843 218.615C252.817 219.128 252.787 219.612 252.787 220.036C252.787 221.184 254.669 222.347 255.599 222.808C256.199 222.448 256.803 222.23 257.355 222.23C259.683 222.23 262.586 222.23 264.071 220.471C265.883 218.333 268.347 217.576 270.522 217.111L270.777 217.062C273.046 216.578 276.852 215.779 277.156 213.934C277.34 212.831 277.583 210.43 277.662 208.338C277.812 204.624 277.415 204.024 277.358 203.96C277.265 203.919 277.171 203.874 277.085 203.829C276.65 203.63 276.211 203.428 276.042 202.918C275.862 202.359 276.083 201.586 276.833 200.247C277.362 199.295 277.343 198.822 277.328 198.507C277.291 197.652 277.576 197.595 279.751 197.187C281.289 196.902 282.076 196.028 282.763 195.011C281.233 194.782 279.155 193.132 276.845 191.185V191.197H276.848Z" fill="#79ADEE" fill-opacity="0.4"/>
<path opacity="0.62" d="M166.974 108.167C166.737 108.062 166.242 107.844 165.612 107.571C162.927 106.404 157.928 104.248 156.056 103.085C155.183 102.545 153.874 101.269 152.362 99.7879C149.835 97.3199 146.692 94.2481 144.783 93.918C143.579 93.708 142.113 93.3779 140.692 93.0516C138.318 92.5115 135.857 91.9489 134.53 91.9489C134.027 91.9489 133.562 92.0314 133.105 92.1177C131.612 92.3952 130.191 92.6578 128.983 89.6009C128.601 88.622 128.091 87.4705 127.566 86.2553C126.073 82.8533 124.528 79.3314 124.79 77.8424C124.952 76.931 125.323 73.7691 125.484 70.7197C125.777 65.4012 125.207 64.6698 125.124 64.591C124.727 64.5723 123.669 64.7598 122.446 64.9699C118.389 65.675 112.257 66.744 110.896 64.3885C108.282 59.8576 103.211 52.1424 100.789 51.9623C100.009 51.8986 99.1085 51.9623 98.1597 52.0111C95.5832 52.1611 92.6693 52.3337 91.7579 50.057C91.5104 49.4268 91.3417 48.838 91.1992 48.3166C90.9591 47.4165 90.7791 46.7676 90.3253 46.5238C89.8903 46.295 89.084 46.3738 87.8726 46.7788C87.1713 47.0151 86.6351 47.1689 86.2075 47.2927C85.5625 47.484 85.18 47.5965 85.0562 47.7315C84.9512 47.8665 84.9249 48.2154 84.8949 48.8042C84.8687 49.2393 84.8387 49.8319 84.7599 50.6083C84.5874 52.1386 84.2086 53.0763 83.5561 53.5601C82.7685 54.1565 81.7635 53.9765 80.5934 53.7702C80.2633 53.7139 79.9221 53.6539 79.5695 53.6089C79.0257 53.5414 78.1144 53.5114 77.0643 53.4851C73.1491 53.3876 67.2274 53.2188 65.2397 50.5971C62.7495 47.3114 55.0802 39.6074 53.7001 39.2099C52.1888 38.7748 49.511 38.8385 48.3447 40.7777C47.0246 42.9831 46.4546 43.7407 44.2344 43.6095C43.7319 43.5832 42.7793 43.3844 41.5755 43.1444C38.2302 42.4617 32.0122 41.1902 30.7484 42.8968C30.3134 43.4932 29.9496 44.0821 29.6196 44.5959C28.547 46.325 27.6919 47.6903 25.4793 47.1126C24.9955 46.9889 24.5192 46.8838 24.0542 46.7826C22.119 46.3662 20.2851 45.9837 19.5913 43.992C19.2763 43.0806 17.8362 43.0506 16.5724 43.0131C15.5373 42.9868 14.6522 42.9643 14.2172 42.4805C14.0447 42.2892 13.9509 42.0267 13.9772 41.7491C14.0522 40.6089 12.8446 37.2632 11.307 35.5829C11.4195 35.9167 11.4607 36.2355 11.3707 36.5243C11.307 36.7419 11.1419 37.0457 10.7144 37.237C10.4669 37.3532 10.2606 37.4733 10.0806 37.5783C9.30431 38.0434 8.85803 38.0846 8.19048 37.132C8.12672 37.267 8.07422 37.4358 8.01796 37.5708C7.68419 38.4447 7.18165 39.765 5.94031 39.5737C5.33277 39.4799 4.79273 39.8775 4.37269 40.2C3.99392 40.4776 3.63389 40.7402 3.26261 40.5601C2.89884 40.3876 2.82758 39.9225 2.80883 39.4387C2.77133 38.441 3.21011 37.7396 3.49513 37.282C3.58889 37.147 3.70515 36.9482 3.7239 36.8657C3.69389 36.8356 3.57389 36.7494 3.22886 36.6294C2.25004 36.3068 1.87126 35.8229 1.64249 35.5341C1.63124 35.5229 1.61624 35.5041 1.59749 35.4854C1.54123 35.5229 1.45498 35.5904 1.32372 35.7067C1.15121 35.868 1.00119 35.9917 0.888686 36.0892C0.821181 36.1455 0.753676 36.2018 0.701172 36.243C0.738675 36.3218 0.776177 36.4156 0.81368 36.5468C0.81368 36.5843 1.57499 39.4236 2.46755 40.8902C3.39012 42.4167 3.89266 44.0408 4.4927 46.5013L4.51896 46.5838C5.04024 48.7405 6.13533 53.2301 7.58668 54.7791C7.89046 55.1092 8.27298 55.4655 8.71927 55.8819C10.4744 57.5172 12.8708 59.7564 14.2584 63.5971C14.7797 65.0411 15.0385 65.8475 15.196 66.3314C15.3648 66.8565 15.6273 67.4078 15.9761 67.9855C16.1748 68.308 16.4336 68.7281 16.8049 69.347C18.8825 72.8314 25.6593 79.5677 27.1406 80.1641C27.2644 80.2128 27.3882 80.2616 27.5007 80.2991C29.0308 80.8955 29.6646 81.248 30.0359 84.1098C30.1221 84.7662 30.1709 85.4676 30.2234 86.1352C30.3959 88.4607 30.5571 90.6586 32.016 91.1312C32.5298 91.3 33.0698 91.4463 33.5911 91.5888C35.3275 92.0726 36.9701 92.5265 37.7202 93.6517C38.0802 94.1918 38.279 94.8744 38.489 95.6058C38.8415 96.8286 39.209 98.0851 40.3229 98.9402C41.673 99.9867 42.4568 100.876 43.5256 102.113C43.9981 102.653 44.5344 103.265 45.2057 103.985C45.8583 104.69 46.5858 105.335 47.2871 105.962C48.881 107.376 50.3811 108.707 50.6324 110.41C50.7749 111.389 51.2774 112.207 52.035 112.709C52.9688 113.328 54.2289 113.459 55.6653 113.088C56.4378 112.882 57.1766 112.717 57.8892 112.555C59.9331 112.09 61.6957 111.681 62.3145 110.92C62.5808 110.598 62.637 110.301 62.682 110.035C62.7308 109.769 62.7945 109.457 63.0983 109.311C63.4283 109.138 63.8296 109.232 64.8947 109.709C65.5022 109.982 66.1285 110.222 66.6723 110.432C68.0862 110.976 68.7312 111.228 68.6787 111.771C68.6337 112.229 68.1012 112.368 67.6061 112.462C66.8073 112.615 66.0273 112.578 65.3372 112.555C64.2271 112.51 63.3496 112.477 62.7908 113.152C62.2695 113.771 61.4332 114.112 60.8256 114.367C60.8181 114.367 60.8069 114.367 60.7994 114.374C60.8969 114.401 61.0094 114.431 61.1482 114.468C61.5269 114.562 61.9057 114.66 62.277 114.761C64.5384 115.357 66.6723 115.92 69.1925 114.971C71.8777 113.966 77.1206 112.214 79.7458 112.038C80.1996 112.008 81.1222 111.922 82.3035 111.801C87.4676 111.306 98.2197 110.271 101.449 111.003C102.551 111.25 104.13 111.58 105.96 111.944C110.626 112.885 116.435 114.071 119.172 115.023C121.366 115.785 122.563 117.011 123.523 118.005C124.247 118.748 124.824 119.344 125.604 119.517C127.629 119.952 128.188 120.192 129.006 121.576L129.047 121.655C129.696 122.757 130.367 123.89 134.8 124.096C138.059 124.25 142.064 126.212 144.989 127.641C146.426 128.346 147.675 128.954 148.436 129.164C149.662 129.497 152.539 131.043 155.569 132.678C157.433 133.683 159.342 134.703 160.879 135.454C161.551 133.792 164.078 127.352 163.985 124.595C163.973 124.093 163.94 123.541 163.906 122.96C163.707 119.532 163.46 115.263 165.777 114.314C166.944 113.838 167.495 112.023 167.525 110.432C167.551 109.056 167.21 108.257 166.974 108.145L166.962 108.163L166.974 108.167Z" fill="#79ADEE" fill-opacity="0.4"/>
<path opacity="0.62" d="M269.994 62.2242C269.214 61.7591 268.415 61.2715 267.707 60.6977C267.335 60.3938 266.615 60.1838 265.674 60.0413H265.629C262.505 59.5687 257.033 59.8425 253.954 60.0863C255.199 61.3503 256.141 63.507 255.304 67.1414C254.974 68.5779 254.543 69.5906 254.194 70.4083C253.508 72.0024 253.302 72.4862 254.839 73.7614C257.442 75.9294 261.144 82.1893 261.144 85.1524C261.144 86.4802 261.046 88.5056 260.754 90.2234C260.375 92.4551 259.812 93.4903 258.976 93.4903C258.938 93.4903 258.777 93.5878 258.541 93.9554C257.555 95.5307 256.482 100.512 257.712 103.929C258.042 104.844 258.376 105.703 258.698 106.539C259.857 109.521 260.855 112.105 260.589 114.869C260.454 116.265 260.525 119.457 260.6 122.84C260.735 129.021 260.787 132.832 260.315 133.698C260.041 134.201 259.7 134.61 259.366 134.992C258.71 135.754 258.083 136.474 257.948 138.049C257.866 138.979 257.457 140.584 256.932 142.036C255.916 144.812 255.327 144.782 255.079 144.763C254.374 144.725 254.247 143.701 254.281 142.179C254.311 140.401 254.431 138.78 254.528 137.355C254.764 134.077 254.937 131.703 253.996 129.974C253.493 129.051 253.309 128.207 253.189 127.656C253.144 127.468 253.103 127.247 253.054 127.131C252.732 127.284 251.944 127.986 251.667 128.222C248.779 130.776 248.19 133.818 248.891 134.947C249.889 136.571 250.725 143.574 249.683 145.775C248.64 147.97 243.003 163.997 242.358 168.07C242.186 169.184 242.062 170.557 241.931 172.001C241.571 176.13 241.192 180.395 239.358 181.13C238.522 181.471 237.866 182.165 237.164 182.904C236.148 183.995 235.087 185.117 233.377 185.117C232.893 185.117 232.416 185.098 231.959 185.072C229.975 184.978 228.407 184.903 227.361 186.67C226.146 188.729 224.522 192.029 224.102 192.892C224.803 193.909 225.448 194.651 226.097 194.651C227.635 194.651 228.929 195.289 231.048 197.093C231.561 197.532 232.251 198.072 232.975 198.634C235.072 200.27 237.678 202.299 238.949 204.133C240.753 206.717 243.907 211.77 245.141 214.526C246.424 217.388 247.193 221.356 246.195 222.763C245.891 223.198 245.561 223.554 245.235 223.903C244.62 224.56 244.095 225.13 243.922 226.041C243.836 226.506 243.922 226.964 244.005 227.399C244.166 228.228 244.365 229.259 242.865 229.867C242.437 230.036 242.216 230.171 242.103 230.264C242.208 230.291 242.362 230.321 242.568 230.321C243.679 230.321 244.867 231.367 246.131 232.477C247.073 233.303 247.774 234.908 247.688 236.067C247.631 236.779 247.301 237.14 247.035 237.308C246.776 237.477 246.476 238.317 246.236 238.989C245.707 240.47 244.991 242.503 243.319 241.963C240.525 241.063 238.334 241.07 237.014 241.974C236.651 242.229 236.347 242.458 236.08 242.657C235.034 243.444 234.457 243.88 232.454 243.816H232.416C231.674 243.816 231.306 244.528 230.744 245.789C230.073 247.263 229.251 249.104 227.031 249.873C226.195 250.166 225.31 250.406 224.455 250.635C221.454 251.452 218.859 252.161 219.107 254.565C219.467 257.956 223.135 259.82 225.358 260.207C225.538 260.237 225.793 260.282 226.097 260.338C237.656 262.419 245.816 262.768 250.362 261.392C258.451 258.939 262.632 256.898 264.515 251.97C265.483 249.453 266.698 248.343 267.422 247.687C267.755 247.383 268.018 247.146 268.022 246.981C268.029 246.666 267.377 245.972 267.159 245.744C266.915 245.489 266.705 245.267 266.525 245.076C265.111 243.594 265.055 243.531 264.661 242.301C264.556 241.967 264.425 241.558 264.215 240.988C263.739 239.656 263.529 237.548 263.341 235.695C263.229 234.548 263.075 233.032 262.884 232.474C262.089 233.528 261.496 237.725 262.134 239.39C263.131 241.97 263.281 243.302 262.647 243.827C262.032 244.341 261.054 243.748 260.731 243.542C259.82 242.983 258.848 242.706 257.9 242.432C256.182 241.937 254.573 241.464 253.891 239.442C253.651 238.711 253.493 238.077 253.358 237.522C252.979 235.936 252.799 235.212 251.164 234.728C250.459 234.518 249.957 234.12 249.683 233.539C249.019 232.132 249.912 230.062 250.44 228.82L250.467 228.757C250.932 227.665 252.848 224.931 254.843 223.389C253.827 222.83 251.974 221.611 251.974 220.096C251.974 219.642 252 219.155 252.03 218.626C252.105 217.249 252.203 215.539 251.682 214.928C251.49 214.691 251.175 214.406 250.808 214.073C249.698 213.075 248.186 211.698 248.186 210.052C248.186 196.887 248.948 196.317 249.229 196.107C250.054 195.488 250.054 192.48 250.054 191.497C250.054 191.126 249.998 190.604 249.938 189.997C249.671 187.499 249.274 183.729 252.027 183.08C253.309 182.776 256.291 181.411 259.186 180.095C265.37 177.267 267.125 176.573 267.707 177.075C268.022 177.349 268.742 178.474 270.043 180.571C270.411 180.173 271.041 179.442 271.836 178.388C272.368 177.675 272.691 175.549 272.634 173.096C272.578 170.71 272.177 168.677 271.656 168.156C270.242 166.75 265.614 155.34 265.531 153.089C265.464 151.049 266.664 150.258 268.198 149.245C268.457 149.076 268.727 148.9 269.004 148.705C269.916 148.071 269.979 147.385 270.084 146.237C270.167 145.299 270.276 144.136 270.913 142.655C272.169 139.741 270.418 135.581 268.138 133.139C266.454 131.335 266.495 128.98 266.54 126.692C266.551 125.81 266.57 124.899 266.499 124.032C266.214 120.957 265.34 115.976 264.545 113.729C263.945 112.045 263.251 108.865 265.363 106.577C266.949 104.847 268.4 101.389 268.4 99.3114C268.4 97.0235 269.855 93.149 271.232 91.7725C271.614 91.3824 271.809 91.0036 271.794 90.606C271.794 89.9796 271.329 89.2557 270.358 88.3368C269.837 87.8417 269.615 87.4066 269.653 86.9603C269.709 86.3039 270.328 85.8801 270.984 85.4337C271.251 85.2612 271.524 85.0737 271.776 84.8636C272.687 84.1135 272.316 80.6103 272.098 78.5211C272.053 78.1385 272.019 77.7785 271.993 77.4559C271.783 75.093 272.649 68.3491 272.979 65.8174L273.024 65.5061C273.193 64.1858 271.731 63.3007 270.043 62.2767L270.017 62.228L269.994 62.2242Z" fill="#79ADEE" fill-opacity="0.4"/>
<path opacity="0.62" d="M258.957 92.6656C259.107 92.6656 259.572 92.2005 259.925 90.0813C260.203 88.4197 260.304 86.4431 260.304 85.1528C260.304 82.6249 256.94 76.5937 254.3 74.392C252.293 72.7117 252.713 71.7215 253.426 70.0787C253.76 69.2985 254.176 68.3196 254.491 66.9468C255.335 63.3086 254.322 60.6681 251.659 59.5091C251.243 59.3291 250.748 59.3553 250.178 59.5916C248.022 60.4768 245.449 64.0362 244.624 66.0916C243.645 68.5446 238.89 67.982 235.743 67.6107C235.012 67.5244 234.378 67.4494 234.026 67.4494C233.673 67.4494 232.837 68.3158 231.757 71.5527C231.007 73.8031 230.373 76.5599 230.264 78.109C230.035 81.3083 225.119 82.7074 218.199 84.3427C212.739 85.6367 206.919 85.0628 202.223 82.7749C199.366 81.3871 198.132 81.6797 195.679 82.261C194.779 82.4711 193.763 82.7149 192.476 82.9174C188.107 83.6188 186.112 81.2371 184.653 79.5005C184.417 79.2229 184.196 78.9604 183.982 78.7241C183.251 77.9364 181.349 79.2454 179.68 80.4044C178.533 81.1996 177.441 81.9497 176.5 82.246C175.484 82.5686 174.07 85.0591 173.159 95.0773C172.825 98.7605 169.39 99.3306 166.888 99.7432C166.701 99.7732 166.521 99.8032 166.344 99.837C164.683 100.122 164.975 104.645 165.253 106.506C165.5 106.611 165.737 106.716 165.954 106.81C166.607 107.095 167.083 107.301 167.323 107.41C168.122 107.77 168.377 109.221 168.358 110.452C168.328 112.173 167.713 114.424 166.108 115.08C164.33 115.804 164.567 119.915 164.739 122.919C164.769 123.508 164.803 124.067 164.818 124.573C164.915 127.555 162.309 134.164 161.638 135.81C162.313 136.125 162.89 136.369 163.318 136.493C166.168 137.348 170.042 138.781 170.698 141.328C171.201 143.278 172.634 144.954 174.737 146.046C175.337 146.361 176.133 146.654 176.976 146.965C178.971 147.704 180.858 148.401 181.105 149.624C181.203 150.127 183.052 151.837 184.533 153.214C187.128 155.607 189.806 158.093 190.035 159.609C190.215 160.798 191.167 161.203 192.829 161.814C193.834 162.182 194.974 162.602 196.084 163.356C197.944 164.631 201.998 167.935 208.126 173.197C209.199 174.12 210.444 175.47 211.546 176.667C212.57 177.777 213.534 178.824 214.187 179.337C214.498 179.585 214.862 179.803 215.252 180.031C216.489 180.763 218.027 181.682 218.503 184.198C218.901 186.28 219.726 187.199 220.761 188.35C221.188 188.827 221.672 189.367 222.16 190.031C222.617 190.646 223.026 191.272 223.42 191.865C223.465 191.932 223.514 192 223.555 192.075C224.17 190.837 225.561 188.054 226.641 186.224C227.935 184.03 229.9 184.123 231.985 184.221C232.439 184.24 232.897 184.266 233.366 184.266C234.716 184.266 235.616 183.317 236.55 182.312C237.273 181.539 238.023 180.744 239.036 180.343C240.405 179.799 240.791 175.414 241.099 171.9C241.23 170.444 241.346 169.06 241.534 167.913C242.182 163.798 247.875 147.614 248.929 145.393C249.822 143.495 249.015 136.71 248.179 135.345C247.182 133.729 248.123 130.218 251.112 127.574C252.368 126.463 252.867 126.122 253.336 126.28C253.756 126.415 253.857 126.876 253.988 127.446C254.105 127.986 254.273 128.721 254.712 129.554C255.766 131.493 255.578 134.096 255.342 137.389C255.245 138.811 255.125 140.409 255.095 142.168C255.076 143.09 255.14 143.555 255.196 143.781C255.796 143.004 256.989 139.677 257.131 137.948C257.292 136.118 258.065 135.221 258.747 134.434C259.07 134.066 259.366 133.714 259.595 133.286C259.993 132.547 259.869 126.932 259.775 122.836C259.7 119.435 259.625 116.209 259.775 114.772C260.022 112.199 259.1 109.825 257.934 106.821C257.611 105.984 257.277 105.122 256.944 104.188C255.65 100.58 256.647 95.2086 257.952 93.3482C258.275 92.8906 258.62 92.6618 258.976 92.6618L258.957 92.6543V92.6656Z" fill="#79ADEE" fill-opacity="0.4"/>
<path opacity="0.62" d="M160.883 135.475C160.804 135.685 160.748 135.817 160.729 135.858C160.853 135.918 160.977 135.974 161.093 136.03L161.161 136.06L161.476 136.192C161.487 136.154 161.543 136.03 161.629 135.824C161.393 135.719 161.146 135.595 160.879 135.472L160.883 135.475Z" fill="#79ADEE" fill-opacity="0.4"/>
<path opacity="0.62" d="M311.195 164.645C311.034 164.311 310.798 163.846 310.524 163.294C309.069 160.406 307.561 157.271 306.984 155.009C306.661 155.144 306.327 155.028 306.024 154.923C305.491 154.731 305.067 154.581 304.535 155.283C304.242 155.662 303.863 155.86 303.425 155.86C303.218 155.86 302.997 155.815 302.772 155.725C300.998 155.031 298.894 151.543 299.074 149.615C299.277 147.466 298.534 134.177 297.139 131.518C295.647 128.668 297.09 123.323 297.784 121.706C298.002 121.2 298.212 119.456 298.429 117.622C298.864 113.938 299.367 109.775 300.481 108.425C301.186 107.577 301.392 106.467 301.002 105.537C300.642 104.674 299.873 104.134 298.902 104.048C298.486 104.01 297.923 103.804 297.537 103.031C296.472 100.848 297.672 95.5486 298.703 93.9696C299.337 92.9906 299.547 92.2292 299.356 91.6329C299.168 91.0552 298.576 90.5714 297.582 90.1813C296.652 89.8175 295.054 90.3351 293.648 90.7964C292.05 91.3178 290.542 91.8016 289.657 91.2053C289.249 90.9277 289.024 90.4664 288.982 89.8287C288.81 87.2632 287.509 86.4456 285.858 85.3991C285.543 85.1928 285.206 84.9903 284.88 84.7615C283.799 84.0226 283.169 84.664 281.992 86.2918C281.621 86.8132 281.231 87.3458 280.788 87.7846C279.97 88.6023 278.335 88.0509 275.785 86.093C274.694 85.2566 273.67 84.3377 273.051 83.7563C272.935 84.5327 272.687 85.1216 272.271 85.4666C271.986 85.7029 271.682 85.9055 271.416 86.0855C270.951 86.4006 270.467 86.7306 270.445 86.9969C270.433 87.1657 270.595 87.4133 270.899 87.7021C272.057 88.8048 272.579 89.6862 272.597 90.5526C272.597 91.179 272.331 91.7754 271.787 92.3117C270.58 93.5195 269.196 97.2327 269.196 99.2731C269.196 101.554 267.677 105.21 265.941 107.093C264.129 109.066 264.756 111.902 265.296 113.417C266.124 115.754 266.994 120.731 267.291 123.912C267.377 124.831 267.358 125.764 267.34 126.665C267.295 128.885 267.257 130.971 268.716 132.527C271.184 135.16 273.047 139.691 271.652 142.935C271.064 144.286 270.966 145.34 270.884 146.262C270.779 147.451 270.677 148.483 269.458 149.33C269.173 149.522 268.9 149.709 268.641 149.874C267.171 150.842 266.286 151.423 266.342 153.006C266.409 155.013 270.97 166.269 272.222 167.521C273.715 169.014 273.895 176.936 272.481 178.819C271.54 180.079 270.82 180.87 270.486 181.23V181.238C272.459 184.418 275.159 188.769 276.25 189.632C276.573 189.891 276.97 190.228 277.383 190.573C279.119 192.044 281.992 194.459 283.301 194.219C283.897 193.289 284.538 192.359 285.645 191.751C286.773 191.136 287.812 189.793 288.825 188.484C290.07 186.871 291.143 185.48 292.358 185.48C293.213 185.48 294.169 184.482 295.275 183.331C296.337 182.235 297.537 180.986 299.101 180.045C300.518 179.19 302.142 177.727 303.717 176.313C306.136 174.138 307.67 172.81 308.754 172.81C309.455 172.81 309.901 172.619 310.471 172.382C311.154 172.097 311.915 171.786 313.228 171.711C312.917 170.316 311.99 166.299 311.203 164.637L311.192 164.648L311.195 164.645Z" fill="#80ECB6"/>
<path opacity="0.62" d="M427.131 105.948C426.19 103.847 425.335 103.648 424.641 103.487C423.921 103.318 423.362 103.09 423.287 101.852C423.246 101.12 423.264 100.607 423.276 100.265C423.276 100.104 423.283 99.9427 423.276 99.8489C423.182 99.8227 422.991 99.8039 422.841 99.7889C421.697 99.6464 421.442 99.4289 420.594 98.705C420.474 98.6037 420.351 98.4949 420.208 98.3749C420.066 98.2549 419.9 98.1086 419.72 97.9586C418.85 97.2159 416.559 95.2506 415.97 95.2506H415.959C415.85 95.2506 415.745 95.2581 415.636 95.2693C414.853 95.3181 413.671 95.3931 413.521 94.3466C413.48 94.0428 412.906 93.5515 412.58 93.4052C412.535 93.9003 412.227 94.2791 411.811 94.3354C411.594 94.3654 410.851 94.3616 410.499 92.9289C410.341 92.3287 408.575 92.3512 407.397 92.3662C405.968 92.3775 404.933 92.3925 404.577 91.7961C404.404 91.5036 403.654 91.0272 402.938 90.5621C401.678 89.7557 400.264 88.8443 399.758 87.7678C399.495 87.2052 399.255 86.3463 398.97 85.3561C398.468 83.5895 397.785 81.1741 396.908 80.709C395.231 79.8351 393.045 78.0047 392.295 76.3469C392.028 75.7655 391.935 75.3492 391.863 75.0454C391.743 74.524 391.725 74.4303 390.9 74.1039C390.543 73.9539 390.258 73.8864 390.007 73.8189C389.043 73.5713 388.646 73.3313 388.001 71.5497C387.847 71.1146 387.697 70.687 387.562 70.2744C386.958 68.4516 386.433 66.8763 384.963 65.8561C384.648 65.6385 384.314 65.4022 383.962 65.1659C381.475 63.4819 379.844 62.2966 379.739 61.3552C379.645 60.5375 378.265 58.6659 377.181 58.1258C376.757 57.9158 376.33 57.7658 375.921 57.6232C375.19 57.3682 374.503 57.1319 373.933 56.588C373.667 56.3405 372.838 56.0179 372.024 55.7029C370.588 55.144 368.949 54.5176 368.435 53.6024C368.132 53.0511 366.68 52.376 365.405 51.7721C363.913 51.0782 362.499 50.4143 362.041 49.6529C361.869 49.3679 361.756 49.3941 361.426 49.4616C361.16 49.5254 360.792 49.5967 360.466 49.3566C360.106 49.0903 359.915 48.5202 359.829 47.4587C359.675 45.6434 356.097 44.9233 353.959 44.4957C352.354 44.1731 351.792 44.0418 351.597 43.6518C351.218 42.8941 349.091 40.5949 348.611 40.5011C348.458 40.4749 348.214 40.5086 347.959 40.5462C347.201 40.6512 346.061 40.8125 345.262 39.751C344.902 39.2747 344.595 39.1434 344.16 38.9708C343.744 38.7983 343.26 38.592 342.667 38.0594C342.135 39.1996 340.548 40.1936 339.465 40.7674C340.312 41.0525 340.916 41.4538 341.175 42.0577C341.632 43.1041 341.04 44.3569 340.35 45.8084C339.697 47.1849 338.954 48.7415 338.906 50.4706V50.5531C338.793 54.105 338.703 57.1656 340.256 59.3973C341.336 60.9426 342.045 61.9553 341.786 62.9005C341.625 63.4781 341.137 63.9169 340.192 64.337C338.246 65.211 334.968 70.597 333.258 74.1377C332.463 75.773 330.79 77.4346 329.309 78.8974C327.977 80.2176 326.594 81.5866 326.594 82.3068V82.7231C326.612 86.8939 326.507 92.64 325.435 94.3804C323.68 97.2497 323.537 99.9577 325.007 102.647C326.196 104.834 327.306 108.757 328.112 111.622C328.547 113.153 328.994 114.739 329.185 115.043C329.403 115.193 329.624 115.632 328.956 119.634C328.491 122.436 327.824 125.35 327.111 127.623C326.027 131.13 324.91 133.114 323.721 133.643C324.055 134.164 324.212 134.765 324.137 135.286C324.058 135.845 323.728 136.295 323.196 136.595C323.053 136.67 322.9 136.749 322.731 136.831C321.546 137.446 320.061 138.2 319.892 140.117C319.779 141.351 320.346 142.228 320.927 142.435C321.429 142.607 321.981 142.311 322.435 141.617C323.061 140.646 324.133 140.323 325.303 140.736C326.635 141.212 327.955 142.671 327.801 144.081C327.737 144.644 327.831 145.248 327.936 145.874C328.165 147.292 328.431 148.912 326.642 150.195C325.416 151.069 324.268 151.992 324.171 152.828C324.126 153.192 324.276 153.571 324.628 153.979C325.776 155.319 328.645 155.015 329.699 154.34C329.871 154.235 330.138 154.054 330.479 153.818C334.042 151.436 337.916 149.002 339.693 149.002C344.621 149.002 347.408 150.371 347.996 153.061C348.66 156.099 349.328 161.755 349.5 163.24H349.868C352.696 163.266 356.21 163.289 357.143 162.31C357.848 161.578 358.523 161.226 359.022 160.963C359.761 160.585 359.821 160.547 359.487 159.834C358.936 158.627 359.982 158.038 360.616 157.685C360.946 157.501 361.321 157.288 361.366 157.089C361.392 156.995 361.336 156.845 361.212 156.673C360.264 155.307 359.51 152.903 359.919 151.733C360.069 151.294 360.346 151.125 360.549 151.061C361.677 150.72 366.047 148.695 366.437 148.155C366.729 147.393 368.443 147.176 368.649 147.157C369.343 147.078 371.023 147.026 371.709 148.173C372.186 148.972 372.805 149.332 373.165 149.276C373.228 149.269 373.431 149.239 373.525 148.867C373.592 148.582 373.772 148.365 374.027 148.241C374.77 147.888 375.985 148.413 377.905 149.332C378.284 149.512 378.647 149.685 378.996 149.835C379.412 150.022 379.806 150.255 380.223 150.506C381.809 151.448 383.605 152.52 386.992 150.803C388.829 149.869 390.435 149.332 391.732 148.905C393.574 148.29 394.459 147.963 394.459 147.288C394.459 145.454 395.599 141.302 397.688 140.259C399.619 139.292 401.925 136.509 401.925 135.863C401.925 135.713 401.884 135.552 401.828 135.38C401.727 135.046 401.599 134.629 401.847 134.202C402.135 133.696 402.893 133.32 404.367 132.968C407.112 132.312 410.292 131.333 410.499 129.585C410.641 128.343 411.507 128.381 412.209 128.418C413.045 128.456 414.084 128.497 415.28 127.162C415.993 126.363 416.987 125.32 418.04 124.217C420.568 121.566 423.715 118.261 424.832 116.39L425.005 116.093C426.617 113.385 428.83 109.683 427.15 105.929L427.131 105.955V105.948Z" fill="#79ADEE" fill-opacity="0.4"/>
<path opacity="0.62" d="M347.183 153.248C346.688 150.978 344.164 149.831 339.678 149.831C337.912 149.831 332.838 153.233 330.922 154.512C330.577 154.748 330.295 154.928 330.123 155.037C328.829 155.866 325.51 156.293 323.987 154.515C323.481 153.919 323.264 153.33 323.339 152.73C323.474 151.639 324.509 150.69 326.151 149.519C327.52 148.54 327.336 147.363 327.111 146.005C327.006 145.341 326.894 144.658 326.969 143.983C327.07 143.091 326.14 141.902 325.019 141.504C324.449 141.302 323.65 141.227 323.117 142.055C322.453 143.079 321.531 143.511 320.657 143.203C319.603 142.843 318.939 141.504 319.071 140.034C319.288 137.678 321.133 136.726 322.36 136.099C322.513 136.021 322.663 135.946 322.799 135.87C323.11 135.698 323.282 135.473 323.32 135.169C323.387 134.704 323.14 134.096 322.705 133.665C322.607 133.564 321.928 133.436 320.016 133.988C318.703 134.366 317.166 134.985 316.273 135.488C314.619 136.418 313.727 137.862 313.625 139.764C313.509 142.022 310.835 144.895 309.039 146.024C307.929 146.718 307.831 148.837 307.737 150.885C307.707 151.665 307.67 152.411 307.584 153.086C307.325 155.074 309.89 160.175 311.266 162.917C311.54 163.461 311.78 163.933 311.941 164.286C312.808 166.116 313.787 170.448 314.06 171.694C315.152 171.656 316.063 171.454 316.948 171.255C318.133 170.989 319.254 170.734 320.661 170.895C327.34 171.682 328.761 171.371 329.054 171.206C329.046 171.037 329.099 170.884 329.204 170.752C329.568 170.306 330.479 170.287 332.167 170.287C333.734 170.287 335.692 170.287 336.652 169.71C337.346 169.29 338.22 168.434 339.15 167.534C340.942 165.798 342.968 163.828 345.068 163.431C345.99 163.258 347.269 163.225 348.675 163.232C348.488 161.627 347.839 156.173 347.202 153.233L347.19 153.244L347.183 153.248Z" fill="#79ADEE" fill-opacity="0.4"/>
<path opacity="0.62" d="M340.976 62.6714V62.6789C340.889 62.9827 340.514 63.2865 339.839 63.5903C337.3 64.7305 333.681 71.3318 332.496 73.7811C332.361 74.0624 332.192 74.3474 332.001 74.6325C332.001 74.6325 332.001 74.6337 332.001 74.6362C331.87 74.8238 331.731 75.0188 331.585 75.2101C331.067 75.8815 330.445 76.5603 329.807 77.2205C329.714 77.3142 329.624 77.408 329.53 77.498L329.256 77.7718C329.072 77.9556 328.888 78.1357 328.708 78.3157C328.502 78.5182 328.303 78.7208 328.108 78.9121C328.007 79.0096 327.913 79.1071 327.823 79.2009C327.636 79.3884 327.46 79.5684 327.295 79.7485C327.295 79.7485 327.295 79.7497 327.295 79.7522C326.833 80.2436 326.451 80.6974 326.177 81.1212C326.079 81.2788 325.997 81.4288 325.929 81.5713C325.914 81.6088 325.899 81.6463 325.884 81.6838C325.869 81.7214 325.858 81.7551 325.847 81.7926C325.783 81.9689 325.753 82.1377 325.753 82.3027V82.719C325.779 89.009 325.427 92.7898 324.718 93.9562C324.332 94.5901 324.017 95.2202 323.773 95.8504C323.736 95.9554 323.694 96.0604 323.661 96.1654C323.031 97.9808 323.008 99.7736 323.597 101.525C323.766 102.039 323.991 102.545 324.264 103.048C324.767 103.967 325.258 105.223 325.719 106.589C325.753 106.686 325.783 106.784 325.817 106.881C326.372 108.55 326.878 110.343 327.302 111.843C327.643 113.059 327.88 113.895 328.063 114.465C328.078 114.503 328.09 114.54 328.101 114.578C328.292 115.155 328.427 115.448 328.562 115.605C328.735 116.986 326.766 129.063 324.092 132.285C324.047 132.341 324.006 132.39 323.961 132.442C323.657 132.776 323.368 132.953 323.102 132.971C321.744 132.18 317.15 134.055 315.856 134.783C315.016 135.252 314.352 135.837 313.854 136.527C313.782 136.625 313.715 136.73 313.651 136.835C313.46 137.146 313.302 137.472 313.171 137.821C312.957 138.402 312.834 139.04 312.796 139.73C312.781 140.03 312.706 140.345 312.59 140.668C312.567 140.735 312.541 140.799 312.515 140.867C312.436 141.065 312.338 141.264 312.23 141.463C312.155 141.598 312.076 141.729 311.993 141.864C311.12 143.271 309.698 144.647 308.592 145.337C308.363 145.48 308.168 145.656 307.996 145.863C307.928 145.945 307.864 146.035 307.804 146.129C307.744 146.219 307.692 146.313 307.643 146.414C307.054 147.565 306.979 149.231 306.908 150.855C306.878 151.624 306.837 152.34 306.758 152.993C306.736 153.195 306.728 153.428 306.747 153.675L306.739 153.679C306.717 154.047 306.661 154.193 306.634 154.245C306.556 154.245 306.398 154.189 306.293 154.152C305.944 154.028 305.404 153.837 304.819 154.043C304.729 154.077 304.635 154.118 304.542 154.17V154.174C304.418 154.249 304.29 154.343 304.163 154.463C304.065 154.553 303.975 154.658 303.882 154.778C303.87 154.793 303.855 154.808 303.84 154.831C303.698 154.988 303.484 155.116 303.075 154.958C301.995 154.534 300.649 152.636 300.116 151.061C299.94 150.547 299.85 150.063 299.888 149.677C300.105 147.423 299.43 135.702 298.162 131.846C298.069 131.561 297.971 131.317 297.87 131.126C297.765 130.927 297.679 130.713 297.607 130.488C296.861 128.185 297.652 124.585 298.26 122.758C298.279 122.706 298.294 122.661 298.309 122.612C298.391 122.376 298.47 122.173 298.537 122.015C298.556 121.974 298.571 121.929 298.586 121.88C298.826 121.183 299.01 119.63 299.246 117.695C299.539 115.189 299.925 111.963 300.544 110.114C300.716 109.597 300.908 109.188 301.118 108.937C301.414 108.58 301.643 108.183 301.789 107.77C302.1 106.93 302.096 106.015 301.759 105.193C301.579 104.77 301.32 104.402 301.005 104.098C300.469 103.596 299.764 103.281 298.965 103.209C298.774 103.191 298.5 103.116 298.271 102.65C298.211 102.527 298.159 102.388 298.117 102.238C297.656 100.663 298.121 97.767 298.747 95.8616C298.954 95.239 299.175 94.7214 299.389 94.3951C299.674 93.9525 299.888 93.5362 300.026 93.1461C300.27 92.4822 300.304 91.8896 300.131 91.3532C300.083 91.1957 300.015 91.0457 299.933 90.9031C299.873 90.8094 299.813 90.7194 299.741 90.6293C299.741 90.6293 299.741 90.6281 299.741 90.6256C299.674 90.5356 299.595 90.4493 299.509 90.3668C299.119 89.9917 298.579 89.6691 297.874 89.3916C296.674 88.9228 295.001 89.4666 293.381 89.988C292.042 90.423 290.662 90.8731 290.103 90.4981C290.058 90.4681 289.942 90.3893 289.867 90.1642C289.859 90.1417 289.852 90.1192 289.844 90.0967C289.818 90.003 289.799 89.8904 289.788 89.7479C289.721 88.7202 289.484 87.9251 289.139 87.2837C288.472 86.0609 287.399 85.3858 286.285 84.6844C285.978 84.4856 285.648 84.2794 285.325 84.0618C284.08 83.2066 283.128 83.683 282.344 84.4894C281.961 84.8795 281.624 85.3521 281.309 85.7871C281.132 86.0347 280.949 86.286 280.769 86.526C280.581 86.7623 280.39 86.9874 280.195 87.1862C280.015 87.3625 279.689 87.3625 279.254 87.2237C278.545 86.9949 277.555 86.391 276.475 85.5846C276.242 85.4121 276.01 85.2283 275.77 85.0408C275.687 84.9732 275.608 84.9095 275.526 84.842C274.727 84.1893 273.906 83.4504 273.129 82.6928C273.171 81.4776 273.043 79.9885 272.867 78.3832C272.833 78.0081 272.796 77.6518 272.769 77.333C272.559 75.0638 273.426 68.38 273.748 65.8633L273.786 65.5595C274.026 63.7066 272.274 62.6489 270.414 61.5199C269.657 61.0661 268.884 60.5972 268.22 60.0646C268.04 59.9146 267.8 59.7833 267.515 59.6708C268.408 59.2582 269.237 58.4518 269.465 57.0003C269.627 55.9726 269.795 53.4183 269.987 50.4628C270.283 45.9881 270.729 39.2481 271.202 38.4679C271.43 38.3329 272.199 38.2954 272.882 38.2691C274.648 38.1979 277.056 38.0929 277.888 36.3563C278.571 34.916 280.825 33.6482 282.505 33.3557C283.319 33.2132 283.956 33.3069 284.26 33.6107C284.44 33.7908 284.654 34.0308 284.909 34.3084C286.465 36.0225 289.364 39.1993 291.832 37.2677C292.56 36.7013 293.227 36.3075 293.823 35.9587C295.252 35.1298 296.381 34.4697 296.381 32.223C296.381 29.5562 296.921 26.9269 297.551 26.4806C297.607 26.4506 297.637 26.4506 297.671 26.4506C297.799 26.6756 297.72 27.6471 297.664 28.296C297.529 29.9275 297.36 31.9529 298.47 32.8793C299.051 33.3669 299.914 33.4682 301.024 33.1682C303.334 32.5493 304.68 31.3228 305.565 30.5051C306.061 30.0513 306.484 29.6687 306.732 29.7062C306.882 29.7287 307.152 29.9088 307.598 30.6702C309.687 34.2296 313.19 34.5709 315.774 33.7083C318.226 32.8906 321.654 35.1223 323.316 37.7178C325.093 40.5008 326.016 40.5458 329.897 40.7296L330.561 40.7634C331.21 40.7934 331.892 40.8196 332.549 40.8421C335.976 40.9734 339.862 41.1197 340.413 42.3799C340.717 43.0851 340.196 44.184 339.596 45.4555C338.939 46.8283 338.129 48.5424 338.065 50.444V50.5228C337.953 54.221 337.855 57.4091 339.565 59.8583C339.565 59.8621 339.569 59.8621 339.569 59.8658H339.565C340.207 60.7885 340.754 61.5687 340.938 62.1425C341.002 62.3451 341.021 62.5214 340.979 62.6714H340.976Z" fill="#79ADEE" fill-opacity="0.4"/>
<mask id="path-11-inside-1_2576_3" fill="white">
<path d="M427.095 106.863C426.113 104.676 425.161 104.293 424.185 104.065C423.641 103.935 423.369 103.873 423.313 102.996C423.264 102.28 423.289 101.78 423.301 101.471C423.307 101.279 423.307 101.088 423.295 100.977L423.252 100.544L422.831 100.439C422.726 100.408 422.51 100.384 422.331 100.359C421.367 100.242 421.219 100.112 420.409 99.414L419.538 98.6729C416.757 96.3011 415.917 95.8317 415.398 95.8317H415.324C415.219 95.8441 415.114 95.8441 415.021 95.8564C413.847 95.9306 413.612 95.7823 413.569 95.4673C413.476 94.7941 412.586 94.195 412.271 94.0468L411.48 93.6824L411.4 94.5532C411.375 94.757 411.276 94.9115 411.153 94.93C411.023 94.9423 410.727 94.7756 410.535 93.985C410.282 92.9906 408.842 92.935 406.809 92.9535C405.839 92.9659 404.733 92.9721 404.56 92.6818C404.325 92.2989 403.732 91.9036 402.78 91.2859L402.718 91.2489C401.544 90.4953 400.216 89.643 399.79 88.7351C399.549 88.2039 399.301 87.3392 399.036 86.419C398.325 83.9114 397.701 81.9534 396.669 81.4099C395.069 80.5699 393.011 78.822 392.344 77.3521C392.103 76.8209 392.016 76.4441 391.954 76.16C391.775 75.388 391.565 75.1718 390.632 74.8012C390.249 74.6468 389.946 74.5665 389.656 74.4924C388.939 74.3071 388.673 74.2453 388.08 72.621C387.932 72.2071 387.79 71.7995 387.648 71.3672C387.042 69.5266 386.467 67.7911 384.824 66.6484L383.823 65.9567C382.191 64.8511 379.961 63.3379 379.88 62.5967C379.757 61.5035 378.187 59.4962 376.989 58.8971C376.531 58.6686 376.093 58.5142 375.635 58.3598C374.956 58.1189 374.362 57.9151 373.905 57.4704C373.578 57.1615 372.917 56.896 371.866 56.4883L371.761 56.4513C370.501 55.9633 368.937 55.358 368.542 54.6416C368.165 53.9684 366.991 53.3816 365.236 52.5663C363.963 51.9734 362.523 51.3002 362.146 50.6887C361.745 50.0402 361.232 50.1452 360.873 50.2193C360.614 50.2811 360.503 50.2873 360.416 50.2255C360.286 50.1267 360.107 49.7931 360.027 48.7802C359.835 46.5011 356.128 45.76 353.681 45.2721C352.834 45.1053 351.883 44.9138 351.753 44.7594C351.389 44.0368 349.152 41.4427 348.311 41.2945C348.083 41.2574 347.798 41.2945 347.489 41.3377C346.624 41.4612 345.92 41.4983 345.382 40.7942C344.925 40.1766 344.486 39.9974 344.023 39.8122C343.652 39.6577 343.232 39.4848 342.713 39.0154L342.305 38.6448V38.6078L342.126 38.3978C340.618 36.7116 337.708 34.482 336.713 34.1176H336.701C336.404 34.0064 335.972 33.9261 335.508 33.8458C334.445 33.6605 332.993 33.4073 332.789 32.6167C332.585 31.8261 331.516 31.8694 329.762 32.0361C328.73 32.1288 327.562 32.2461 327.278 31.8817C326.493 30.9182 322.13 27.9041 321.259 27.4533C320.87 27.2494 319.066 26.7553 315.661 25.8598C313.721 25.3533 311.774 24.8407 311.187 24.6307C310.915 24.5318 310.6 24.433 310.236 24.3218C308.994 23.9451 307.449 23.4695 306.658 22.4072C306.096 21.6475 305.255 21.4745 304.508 21.314C303.68 21.1348 303.167 20.9928 303.006 20.3937C302.747 19.4549 302.401 18.5346 301.622 18.1208C301.128 17.8552 300.51 17.849 299.781 18.0961L299.632 18.1455C299.484 18.2011 299.348 18.2443 299.224 18.2875C297.803 18.7817 297.587 18.8619 296.765 18.2443C296.289 17.8799 295.369 17.707 293.91 17.4599L293.812 17.4414C292.495 17.2252 291.006 16.9782 290.289 16.4779C289.585 15.9961 288.609 15.7305 287.472 15.4279C286.347 15.1314 284.938 14.7547 283.672 14.032C281.503 12.7782 273.946 8.90566 272.129 8.70801C271.783 8.67713 271.363 8.65242 270.813 8.62772C268.904 8.54125 266.018 8.41155 262.712 7.08363C261.94 6.77481 261.198 6.48452 260.518 6.22511L259.925 5.99041C257.262 4.97131 255.334 4.23015 253.888 3.11841C251.985 1.64843 247.246 1.19138 245.312 1.43844C244.28 1.56196 243.699 1.82137 242.809 2.22284C242.154 2.52548 241.339 2.89606 240.01 3.35928C238.626 3.84722 236.97 4.80456 235.32 5.75571C233.46 6.83658 231.532 7.95449 230.828 7.78773L230.568 7.72597C230.025 7.59626 229.722 7.52215 229.227 7.77538C228.789 7.99773 228.22 8.46713 226.966 9.50476C226.768 9.6777 226.546 9.85681 226.311 10.0545L226.095 10.2336C222.529 13.1859 216.443 17.639 214.299 17.7934C212.667 17.917 211.24 19.8563 209.423 22.3269L209.362 22.4072C208.595 23.4448 207.73 24.6245 206.742 25.8042C203.559 29.6088 198.789 33.9323 195.836 34.8217C194.612 35.1922 193.679 35.8099 192.697 36.4584C191.269 37.4034 189.656 38.4657 186.703 39.1451C184.497 39.6454 183.854 40.1642 183.341 40.7015C182.934 41.1277 182.711 41.3624 180.196 41.1648C177.663 40.9671 175.784 41.313 173.949 41.6589C172.355 41.9615 170.847 42.2456 169.092 42.0418C168.252 41.9368 167.628 41.8442 167.115 41.7639C165.422 41.5045 164.971 41.4365 161.375 41.9862C158.792 42.3815 158.094 42.7212 157.414 43.0547C156.864 43.3203 156.388 43.5489 154.911 43.7959C153.57 44.0121 152.427 44.4135 151.414 44.7656C149.783 45.3338 148.244 45.8712 146.143 45.7106C144.957 45.6179 143.814 45.655 142.708 45.692H142.609C140.532 45.7662 138.741 45.8341 137.542 44.9756C136.658 44.3456 135.237 44.6235 133.735 44.92C131.431 45.3709 129.738 45.5747 128.959 44.1171C128.106 42.5359 126.599 42.3259 124.695 42.0542C122.817 41.7886 120.475 41.4612 117.713 39.7689C114.895 38.0519 113.054 38.1878 111.256 38.3175C109.414 38.4472 107.672 38.5707 104.91 36.656C101.709 34.4449 98.8111 33.9508 96.4816 33.5555C94.8009 33.2714 93.4723 33.049 92.6752 32.2461C91.6619 31.2394 90.9389 31.19 90.2963 31.1529C89.666 31.1158 89.1593 31.085 88.424 30.035C87.5157 28.7318 85.4148 29.1703 83.1965 29.6397C81.4231 30.0165 79.5879 30.4056 78.315 29.9053C76.9927 29.3865 76.313 29.232 75.7877 29.1332C75.244 29.0221 74.9968 28.9726 74.2553 28.4477C73.2914 27.7744 72.6178 27.1012 72.2471 26.4527L71.7528 25.6003L71.1966 26.4156C71.1225 26.5206 71.0483 26.6009 70.968 26.6565C70.7456 26.8109 70.4613 26.8356 70.0968 26.743C69.7816 26.6565 69.5221 26.5947 69.2997 26.5453L69.1266 26.5021C68.5664 26.3703 68.0906 26.0409 67.6993 25.5139C66.8466 24.3527 63.93 22.6172 61.7364 23.278C60.7478 23.5745 60.2782 24.0871 59.895 24.5133C59.4378 25.0198 59.1103 25.3842 58.0475 25.3101C57.0836 25.2483 56.6696 25.4459 56.4224 26.113C56.3112 26.4218 56.2185 26.6627 55.5697 26.7368C54.7849 26.8233 54.408 27.1444 54.2041 27.3791C54.1732 27.2865 54.1423 27.1753 54.1114 27.0642C53.9507 26.5021 53.9446 26.1315 53.9384 25.8227C53.9322 25.3656 53.9075 25.0692 53.4502 24.7357C53.0239 24.4145 52.7644 23.9698 52.82 23.7845C52.8385 23.7227 52.9127 23.6919 53.0486 23.6857C53.4749 23.6672 53.8457 23.3954 54.0125 22.9878C54.2103 22.5307 54.1052 21.9872 53.7345 21.5857C52.993 20.7581 50.2495 20.0355 48.958 21.1657C48.4822 21.5857 47.5183 22.0181 46.4493 22.4998C44.4596 23.4077 43.8664 23.7783 43.6996 24.223L43.644 24.3836L43.6749 24.5504C43.7243 24.8407 43.644 25.1062 43.5575 25.3595L43.5328 25.4336C43.508 25.5077 43.4833 25.5942 43.4648 25.6559L43.335 26.218L43.8911 26.3847C43.9529 26.4033 44.058 26.428 44.2495 26.4589C44.6635 26.5083 45.0899 26.465 45.4854 26.428C45.8376 26.3971 46.3257 26.3539 46.4184 26.4712C46.4308 26.4836 46.4864 26.5762 46.3752 26.8727C46.2886 27.1197 46.2145 27.373 46.1403 27.6077C45.9735 28.1697 45.8128 28.7009 45.5842 28.7935C45.5039 28.8244 45.3927 28.8059 45.2567 28.7318C44.9416 28.5588 44.6017 28.46 44.3731 28.3921C44.3113 28.3735 44.231 28.3488 44.163 28.3241L45.7634 26.7924L43.5142 27.3544C43.3845 27.3853 43.2547 27.4286 43.1126 27.478C42.9087 27.5459 42.3834 27.725 42.2537 27.6324C42.1486 27.5583 42.1486 27.1197 42.1486 26.8294V26.7615C42.1486 26.3168 42.1486 25.9524 42.0621 25.7053L41.8706 25.1186L41.2774 25.3101C41.0117 25.4027 40.6656 25.6312 40.2331 26.0203C39.5719 26.6009 38.8984 26.8789 38.2311 27.1444C37.3722 27.4841 36.5565 27.8115 36.1302 28.8306C35.4814 30.3562 33.6585 32.0608 32.0829 32.0608C31.743 32.0608 31.4032 32.0855 31.0757 32.1102L30.9644 32.1226C29.5556 32.2399 29.0551 32.1535 28.8574 31.4123C28.4557 29.9423 28.4804 28.2994 28.7894 28.2006C29.2034 28.0585 29.9758 27.4286 30.3404 26.6009C30.6308 25.9401 30.6308 25.2483 30.3404 24.5936C29.9264 23.6672 29.2466 23.4325 28.6905 23.241C28.1097 23.0433 27.7513 22.8889 27.6154 22.2281C27.2508 20.4431 26.0273 18.9608 25.0387 18.4605L24.9583 18.4234C24.4352 18.164 24.1345 17.5876 24.0562 16.694L24.0438 16.5643C23.9759 15.8232 23.3827 14.9832 22.4187 14.2667C21.4795 13.5626 20.1077 12.9388 19.1562 13.1303C18.3652 13.2847 15.2015 13.5688 12.458 13.6306C7.26755 13.7417 6.53223 13.0809 6.42719 12.8771C6.29125 12.5991 5.84017 11.9815 4.60435 12.1977C3.33145 12.4447 1.82993 13.5812 1.72488 14.7361C1.68163 15.2797 1.47154 15.9652 1.25527 16.6817L1.23673 16.7496C0.798015 18.1825 0.297507 19.8008 0.921597 20.8075C1.32942 21.4807 2.05855 22.2342 2.70118 22.8951C3.44885 23.6672 4.21506 24.4639 4.32629 24.9395C4.39426 25.2607 4.351 25.6868 4.30775 26.1315C4.22742 26.9344 4.13474 27.8547 4.87005 28.2253C5.37674 28.4785 5.67333 30.0597 5.40145 31.0479C5.36438 31.1714 5.23462 31.5605 4.96892 31.5482C4.56109 31.5605 4.27068 31.7829 4.15327 32.1905C3.94936 32.9564 4.48077 34.0928 5.89578 34.7908C6.19238 34.939 6.45808 35.0687 6.69289 35.1922C7.15014 35.4208 7.55797 35.6246 7.81749 35.7234L8.65167 36.0322V35.1428C8.65167 35.0934 8.64549 35.0502 8.63931 34.9884C8.62077 34.7969 8.64549 34.5561 8.88647 34.4758C9.17071 34.3708 9.76391 34.5437 10.1841 35.2108C10.2521 35.3281 10.3324 35.4455 10.4127 35.569L10.5981 35.8593L10.7958 35.9334C10.8453 35.9519 10.8947 35.9705 10.9441 35.9952L11.3458 37.1996C11.4261 37.4404 11.4446 37.6319 11.4014 37.7863C11.3643 37.916 11.2593 38.021 11.0801 38.1013C10.802 38.2248 10.5796 38.3607 10.3942 38.4719C9.85042 38.7992 9.78244 38.8363 9.33137 38.2001L8.70728 37.3169L8.26238 38.3051C8.21913 38.4039 8.17588 38.5213 8.13262 38.6325L8.07083 38.7869C7.64447 39.8924 7.29226 40.473 6.67435 40.3804C5.80928 40.2445 5.11104 40.7757 4.6476 41.1215C4.4993 41.2265 4.25214 41.4118 4.17799 41.4242C4.15945 41.3995 4.09766 41.2945 4.07912 40.8313C4.04823 40.0407 4.38808 39.491 4.66614 39.0463C4.93184 38.6386 4.96892 38.4966 4.98127 38.4286L5.05542 38.0951L4.81444 37.8543C4.67232 37.7122 4.43751 37.5887 4.07912 37.4713C3.27584 37.1996 2.98542 36.829 2.76297 36.5449L2.41076 36.0693L1.92261 36.3966C1.85464 36.4399 1.74342 36.5263 1.5704 36.6746C1.47772 36.7672 1.39121 36.8413 1.31706 36.9031L1.17494 37.0328C1.09461 37.1007 1.02046 37.1625 0.958671 37.2181L0.625 37.5269L0.816552 37.9345C0.847448 37.9901 0.872164 38.0581 0.89688 38.1445L0.915418 38.2187C1.07607 38.8116 1.77431 41.2451 2.61467 42.6286C3.49829 44.08 3.98026 45.655 4.56727 48.0699L4.58581 48.1194C5.11721 50.3181 6.22945 54.8948 7.78659 56.5624C8.08937 56.8836 8.44776 57.2233 8.86176 57.6124L8.95444 57.6927C10.6537 59.28 12.9832 61.4479 14.3179 65.1352C14.7937 66.4693 15.047 67.2537 15.2077 67.7416L15.2448 67.8405C15.5105 68.6743 15.5352 68.7237 16.0851 69.6254C16.2829 69.9466 16.5424 70.3666 16.907 70.9719C18.9399 74.3812 25.7863 81.3173 27.5165 82.009C27.6463 82.0584 27.7698 82.1079 27.8811 82.1511C29.2219 82.6699 29.6792 82.849 30.0129 85.4555C30.0994 86.0793 30.1488 86.7463 30.1982 87.4381C30.3836 89.9704 30.5628 92.3606 32.4042 92.9597C32.9294 93.1265 33.4732 93.2809 34.0107 93.423C35.6235 93.8738 37.1497 94.2938 37.7676 95.2264C38.0704 95.6773 38.2558 96.3135 38.4535 96.9991C38.8181 98.2467 39.2259 99.6611 40.4988 100.637C41.815 101.656 42.5688 102.521 43.6069 103.719C44.0827 104.262 44.6203 104.88 45.2938 105.597C45.9797 106.338 46.7397 107.017 47.4132 107.61C48.9148 108.938 50.3298 110.198 50.5461 111.674C50.7191 112.823 51.3123 113.786 52.2144 114.392C53.2958 115.108 54.7231 115.269 56.3359 114.849C57.0774 114.657 57.7818 114.497 58.4615 114.342L58.548 114.324C60.7787 113.811 62.5397 113.41 63.2874 112.483C63.6581 112.032 63.7323 111.6 63.7817 111.328C63.7941 111.248 63.825 111.075 63.8744 111.032C63.9424 110.995 64.2142 111.038 65.1226 111.446C65.7281 111.724 66.346 111.958 66.9578 112.193C67.6066 112.446 68.2801 112.706 68.4964 112.872C68.4222 112.909 68.2677 112.965 67.9588 113.021C67.2358 113.156 66.5005 113.126 65.8455 113.101C64.6653 113.051 63.5593 113.008 62.8054 113.916C62.3914 114.404 61.6623 114.713 61.1185 114.935L59.4996 115.658L61.4954 116.22C61.8662 116.313 62.2369 116.405 62.6077 116.51C64.8569 117.103 67.174 117.715 69.8805 116.702C72.5252 115.713 77.6785 113.99 80.2305 113.817C80.6816 113.786 81.6085 113.7 82.8196 113.576C87.9297 113.088 98.5639 112.069 101.678 112.767C102.834 113.033 104.545 113.379 106.195 113.712C110.564 114.602 116.545 115.806 119.289 116.763C121.334 117.474 122.471 118.635 123.398 119.592C124.158 120.37 124.813 121.044 125.771 121.26C127.754 121.68 128.088 121.877 128.749 123.002L128.805 123.1C129.645 124.527 130.634 125.633 135.039 125.836C138.166 125.985 142.09 127.906 144.951 129.308C146.347 129.993 147.663 130.636 148.497 130.864C149.678 131.185 152.761 132.847 155.48 134.31C157.284 135.28 158.909 136.151 160.293 136.843L160.164 137.244L160.652 137.479L162.017 138.059L162.147 137.72C162.629 137.924 163.012 138.072 163.315 138.158C164.872 138.628 169.611 140.048 170.254 142.537C170.804 144.662 172.343 146.466 174.592 147.633C175.228 147.966 176.038 148.263 176.897 148.578C178.559 149.189 180.443 149.887 180.616 150.764C180.734 151.357 181.586 152.228 184.108 154.563L184.225 154.674C186.493 156.774 189.323 159.38 189.52 160.684C189.761 162.289 191.127 162.79 192.709 163.37C193.617 163.704 194.754 164.118 195.811 164.84C197.671 166.113 201.693 169.398 207.767 174.605C208.805 175.494 210.029 176.816 211.129 178.008L211.203 178.088C212.21 179.182 213.168 180.213 213.829 180.732C214.169 181.004 214.546 181.232 214.966 181.473C216.146 182.177 217.487 182.968 217.92 185.21C218.352 187.452 219.261 188.471 220.33 189.663C220.744 190.126 221.207 190.645 221.677 191.281C222.115 191.862 222.492 192.436 222.912 193.079L223.382 193.783H223.376L223.648 194.178C224.457 195.339 225.186 196.105 226.082 196.105C227.448 196.105 228.634 196.704 230.618 198.39C231.143 198.841 231.841 199.385 232.558 199.94L232.62 199.99C234.653 201.577 237.186 203.554 238.391 205.283C240.177 207.846 243.297 212.837 244.508 215.542C245.849 218.531 246.368 222.083 245.614 223.139C245.349 223.528 245.058 223.843 244.712 224.214C244.07 224.905 243.458 225.56 243.248 226.653C243.137 227.228 243.242 227.759 243.334 228.234C243.507 229.124 243.551 229.605 242.574 230.001C242.185 230.149 241.876 230.31 241.666 230.476L240.659 231.242L241.882 231.563C242.074 231.613 242.284 231.638 242.506 231.638C243.371 231.638 244.521 232.644 245.652 233.632C246.449 234.33 247.067 235.732 246.992 236.69C246.968 237.06 246.838 237.32 246.628 237.462C246.245 237.703 245.998 238.271 245.577 239.463C244.885 241.396 244.372 242.329 243.446 242.032C240.467 241.075 238.107 241.106 236.618 242.125C236.296 242.347 236.024 242.551 235.784 242.73L235.666 242.817C234.671 243.564 234.214 243.904 232.385 243.848C231.199 243.848 230.71 244.923 230.148 246.177C229.506 247.61 228.77 249.234 226.811 249.913C225.977 250.204 225.075 250.451 224.259 250.667C221.139 251.519 218.192 252.328 218.501 255.244C218.89 258.956 222.844 260.994 225.236 261.408L225.971 261.537C232.929 262.785 238.669 263.415 243.149 263.415C246.152 263.415 248.593 263.131 250.453 262.569C258.714 260.061 262.99 257.961 264.961 252.81C265.876 250.438 267.019 249.401 267.699 248.777C268.156 248.369 268.483 248.073 268.502 247.628C268.514 247.325 268.397 246.912 267.476 245.954L266.84 245.287C265.929 244.332 265.355 243.482 265.116 242.736C265.011 242.403 264.881 241.995 264.671 241.433C264.232 240.198 264.022 238.178 263.843 236.393L263.83 236.301C263.701 234.936 263.552 233.552 263.342 232.947L262.965 231.854L262.267 232.78C261.334 234.015 260.722 238.394 261.433 240.266C262.533 243.101 262.341 243.817 262.131 243.99C262.045 244.058 261.767 244.169 260.932 243.657C259.95 243.058 258.893 242.749 257.96 242.483C256.28 241.995 254.957 241.612 254.383 239.908C254.16 239.228 254.012 238.629 253.882 238.104L253.864 238.036C253.48 236.443 253.227 235.387 251.25 234.806C250.712 234.645 250.354 234.367 250.156 233.947C249.619 232.799 250.428 230.903 250.916 229.754L250.947 229.692C251.355 228.735 253.196 226.066 255.118 224.584L255.526 224.275H255.532L255.822 224.102C256.354 223.781 256.848 223.614 257.25 223.614C259.703 223.614 262.749 223.614 264.418 221.644C266.098 219.655 268.44 218.939 270.504 218.5L270.788 218.445C273.353 217.901 277.233 217.08 277.604 214.832C277.789 213.714 278.036 211.299 278.123 209.174C278.228 206.444 278.073 204.826 277.653 204.375L277.573 204.295L277.474 204.239C277.406 204.208 277.332 204.171 277.264 204.14L277.177 204.103C276.782 203.918 276.553 203.801 276.473 203.566C276.362 203.214 276.603 202.504 277.214 201.398C277.783 200.379 277.808 199.798 277.789 199.335C277.783 199.162 277.783 199.119 277.783 199.119C277.937 198.983 278.753 198.835 279.698 198.656C281.472 198.322 282.38 197.291 283.103 196.228L283.647 195.419H283.628L283.635 195.407C284.228 194.487 284.796 193.678 285.748 193.159C286.984 192.492 288.065 191.09 289.122 189.731C290.209 188.317 291.241 186.982 292.143 186.982C293.262 186.982 294.3 185.902 295.517 184.635C296.543 183.573 297.704 182.369 299.187 181.479C300.639 180.615 302.265 179.151 303.834 177.743L303.89 177.693C305.793 175.982 307.597 174.364 308.493 174.364C309.309 174.364 309.853 174.136 310.446 173.895C311.101 173.617 311.78 173.339 312.992 173.271L313.288 173.259V173.277L313.807 173.259C314.963 173.222 315.939 172.999 316.81 172.808C317.984 172.536 319.004 172.307 320.295 172.462C325.325 173.055 328.266 173.135 329.045 172.697L329.385 172.48L329.366 172.097C329.564 171.857 330.88 171.857 331.93 171.863C333.63 171.863 335.551 171.857 336.633 171.196C337.38 170.745 338.264 169.886 339.234 168.941C340.952 167.274 342.905 165.384 344.82 165.019C345.722 164.846 347.026 164.815 348.293 164.828H349.479C353.347 164.865 356.153 164.803 357.191 163.716C357.815 163.068 358.414 162.753 358.896 162.499C359.798 162.036 360.163 161.696 359.638 160.566C359.39 160.029 359.576 159.739 360.503 159.22C360.972 158.954 361.448 158.689 361.547 158.238C361.615 157.96 361.535 157.651 361.3 157.324C360.379 156.008 359.78 153.846 360.089 152.957C360.163 152.728 360.274 152.691 360.311 152.679C361.189 152.413 365.922 150.35 366.503 149.554L366.583 149.412C366.669 149.183 367.516 148.88 368.276 148.813C368.721 148.763 370.21 148.664 370.729 149.523C371.291 150.462 372.126 151.024 372.799 150.919C373.232 150.857 373.547 150.542 373.67 150.042C373.695 149.943 373.751 149.875 373.831 149.838C374.362 149.578 375.858 150.295 377.174 150.919C377.557 151.104 377.922 151.277 378.268 151.431C378.632 151.592 378.997 151.808 379.429 152.061C381.061 153.031 383.094 154.248 386.776 152.376C388.55 151.475 390.113 150.95 391.417 150.517C393.369 149.863 394.55 149.467 394.55 148.318C394.55 146.601 395.674 142.747 397.429 141.87C399.308 140.932 401.995 138.029 401.995 136.942C401.995 136.695 401.927 136.466 401.872 136.281C401.767 135.947 401.73 135.774 401.835 135.595C402.02 135.268 402.737 134.953 403.954 134.662C407.075 133.915 410.294 132.871 410.541 130.759C410.609 130.154 410.788 130.104 411.604 130.141C412.463 130.185 413.773 130.24 415.157 128.69C415.886 127.875 416.949 126.757 417.913 125.75C420.446 123.088 423.598 119.784 424.747 117.857L424.926 117.554C426.168 115.466 427.75 112.811 427.75 109.932C427.75 108.932 427.558 107.907 427.095 106.863ZM161.671 137.257L161.356 137.127L161.288 137.096C161.171 137.04 161.047 136.985 160.917 136.923C160.936 136.88 160.992 136.75 161.072 136.54C161.338 136.664 161.585 136.781 161.82 136.892C161.739 137.096 161.684 137.22 161.671 137.257Z"/>
</mask>
<path d="M427.095 106.863C426.113 104.676 425.161 104.293 424.185 104.065C423.641 103.935 423.369 103.873 423.313 102.996C423.264 102.28 423.289 101.78 423.301 101.471C423.307 101.279 423.307 101.088 423.295 100.977L423.252 100.544L422.831 100.439C422.726 100.408 422.51 100.384 422.331 100.359C421.367 100.242 421.219 100.112 420.409 99.414L419.538 98.6729C416.757 96.3011 415.917 95.8317 415.398 95.8317H415.324C415.219 95.8441 415.114 95.8441 415.021 95.8564C413.847 95.9306 413.612 95.7823 413.569 95.4673C413.476 94.7941 412.586 94.195 412.271 94.0468L411.48 93.6824L411.4 94.5532C411.375 94.757 411.276 94.9115 411.153 94.93C411.023 94.9423 410.727 94.7756 410.535 93.985C410.282 92.9906 408.842 92.935 406.809 92.9535C405.839 92.9659 404.733 92.9721 404.56 92.6818C404.325 92.2989 403.732 91.9036 402.78 91.2859L402.718 91.2489C401.544 90.4953 400.216 89.643 399.79 88.7351C399.549 88.2039 399.301 87.3392 399.036 86.419C398.325 83.9114 397.701 81.9534 396.669 81.4099C395.069 80.5699 393.011 78.822 392.344 77.3521C392.103 76.8209 392.016 76.4441 391.954 76.16C391.775 75.388 391.565 75.1718 390.632 74.8012C390.249 74.6468 389.946 74.5665 389.656 74.4924C388.939 74.3071 388.673 74.2453 388.08 72.621C387.932 72.2071 387.79 71.7995 387.648 71.3672C387.042 69.5266 386.467 67.7911 384.824 66.6484L383.823 65.9567C382.191 64.8511 379.961 63.3379 379.88 62.5967C379.757 61.5035 378.187 59.4962 376.989 58.8971C376.531 58.6686 376.093 58.5142 375.635 58.3598C374.956 58.1189 374.362 57.9151 373.905 57.4704C373.578 57.1615 372.917 56.896 371.866 56.4883L371.761 56.4513C370.501 55.9633 368.937 55.358 368.542 54.6416C368.165 53.9684 366.991 53.3816 365.236 52.5663C363.963 51.9734 362.523 51.3002 362.146 50.6887C361.745 50.0402 361.232 50.1452 360.873 50.2193C360.614 50.2811 360.503 50.2873 360.416 50.2255C360.286 50.1267 360.107 49.7931 360.027 48.7802C359.835 46.5011 356.128 45.76 353.681 45.2721C352.834 45.1053 351.883 44.9138 351.753 44.7594C351.389 44.0368 349.152 41.4427 348.311 41.2945C348.083 41.2574 347.798 41.2945 347.489 41.3377C346.624 41.4612 345.92 41.4983 345.382 40.7942C344.925 40.1766 344.486 39.9974 344.023 39.8122C343.652 39.6577 343.232 39.4848 342.713 39.0154L342.305 38.6448V38.6078L342.126 38.3978C340.618 36.7116 337.708 34.482 336.713 34.1176H336.701C336.404 34.0064 335.972 33.9261 335.508 33.8458C334.445 33.6605 332.993 33.4073 332.789 32.6167C332.585 31.8261 331.516 31.8694 329.762 32.0361C328.73 32.1288 327.562 32.2461 327.278 31.8817C326.493 30.9182 322.13 27.9041 321.259 27.4533C320.87 27.2494 319.066 26.7553 315.661 25.8598C313.721 25.3533 311.774 24.8407 311.187 24.6307C310.915 24.5318 310.6 24.433 310.236 24.3218C308.994 23.9451 307.449 23.4695 306.658 22.4072C306.096 21.6475 305.255 21.4745 304.508 21.314C303.68 21.1348 303.167 20.9928 303.006 20.3937C302.747 19.4549 302.401 18.5346 301.622 18.1208C301.128 17.8552 300.51 17.849 299.781 18.0961L299.632 18.1455C299.484 18.2011 299.348 18.2443 299.224 18.2875C297.803 18.7817 297.587 18.8619 296.765 18.2443C296.289 17.8799 295.369 17.707 293.91 17.4599L293.812 17.4414C292.495 17.2252 291.006 16.9782 290.289 16.4779C289.585 15.9961 288.609 15.7305 287.472 15.4279C286.347 15.1314 284.938 14.7547 283.672 14.032C281.503 12.7782 273.946 8.90566 272.129 8.70801C271.783 8.67713 271.363 8.65242 270.813 8.62772C268.904 8.54125 266.018 8.41155 262.712 7.08363C261.94 6.77481 261.198 6.48452 260.518 6.22511L259.925 5.99041C257.262 4.97131 255.334 4.23015 253.888 3.11841C251.985 1.64843 247.246 1.19138 245.312 1.43844C244.28 1.56196 243.699 1.82137 242.809 2.22284C242.154 2.52548 241.339 2.89606 240.01 3.35928C238.626 3.84722 236.97 4.80456 235.32 5.75571C233.46 6.83658 231.532 7.95449 230.828 7.78773L230.568 7.72597C230.025 7.59626 229.722 7.52215 229.227 7.77538C228.789 7.99773 228.22 8.46713 226.966 9.50476C226.768 9.6777 226.546 9.85681 226.311 10.0545L226.095 10.2336C222.529 13.1859 216.443 17.639 214.299 17.7934C212.667 17.917 211.24 19.8563 209.423 22.3269L209.362 22.4072C208.595 23.4448 207.73 24.6245 206.742 25.8042C203.559 29.6088 198.789 33.9323 195.836 34.8217C194.612 35.1922 193.679 35.8099 192.697 36.4584C191.269 37.4034 189.656 38.4657 186.703 39.1451C184.497 39.6454 183.854 40.1642 183.341 40.7015C182.934 41.1277 182.711 41.3624 180.196 41.1648C177.663 40.9671 175.784 41.313 173.949 41.6589C172.355 41.9615 170.847 42.2456 169.092 42.0418C168.252 41.9368 167.628 41.8442 167.115 41.7639C165.422 41.5045 164.971 41.4365 161.375 41.9862C158.792 42.3815 158.094 42.7212 157.414 43.0547C156.864 43.3203 156.388 43.5489 154.911 43.7959C153.57 44.0121 152.427 44.4135 151.414 44.7656C149.783 45.3338 148.244 45.8712 146.143 45.7106C144.957 45.6179 143.814 45.655 142.708 45.692H142.609C140.532 45.7662 138.741 45.8341 137.542 44.9756C136.658 44.3456 135.237 44.6235 133.735 44.92C131.431 45.3709 129.738 45.5747 128.959 44.1171C128.106 42.5359 126.599 42.3259 124.695 42.0542C122.817 41.7886 120.475 41.4612 117.713 39.7689C114.895 38.0519 113.054 38.1878 111.256 38.3175C109.414 38.4472 107.672 38.5707 104.91 36.656C101.709 34.4449 98.8111 33.9508 96.4816 33.5555C94.8009 33.2714 93.4723 33.049 92.6752 32.2461C91.6619 31.2394 90.9389 31.19 90.2963 31.1529C89.666 31.1158 89.1593 31.085 88.424 30.035C87.5157 28.7318 85.4148 29.1703 83.1965 29.6397C81.4231 30.0165 79.5879 30.4056 78.315 29.9053C76.9927 29.3865 76.313 29.232 75.7877 29.1332C75.244 29.0221 74.9968 28.9726 74.2553 28.4477C73.2914 27.7744 72.6178 27.1012 72.2471 26.4527L71.7528 25.6003L71.1966 26.4156C71.1225 26.5206 71.0483 26.6009 70.968 26.6565C70.7456 26.8109 70.4613 26.8356 70.0968 26.743C69.7816 26.6565 69.5221 26.5947 69.2997 26.5453L69.1266 26.5021C68.5664 26.3703 68.0906 26.0409 67.6993 25.5139C66.8466 24.3527 63.93 22.6172 61.7364 23.278C60.7478 23.5745 60.2782 24.0871 59.895 24.5133C59.4378 25.0198 59.1103 25.3842 58.0475 25.3101C57.0836 25.2483 56.6696 25.4459 56.4224 26.113C56.3112 26.4218 56.2185 26.6627 55.5697 26.7368C54.7849 26.8233 54.408 27.1444 54.2041 27.3791C54.1732 27.2865 54.1423 27.1753 54.1114 27.0642C53.9507 26.5021 53.9446 26.1315 53.9384 25.8227C53.9322 25.3656 53.9075 25.0692 53.4502 24.7357C53.0239 24.4145 52.7644 23.9698 52.82 23.7845C52.8385 23.7227 52.9127 23.6919 53.0486 23.6857C53.4749 23.6672 53.8457 23.3954 54.0125 22.9878C54.2103 22.5307 54.1052 21.9872 53.7345 21.5857C52.993 20.7581 50.2495 20.0355 48.958 21.1657C48.4822 21.5857 47.5183 22.0181 46.4493 22.4998C44.4596 23.4077 43.8664 23.7783 43.6996 24.223L43.644 24.3836L43.6749 24.5504C43.7243 24.8407 43.644 25.1062 43.5575 25.3595L43.5328 25.4336C43.508 25.5077 43.4833 25.5942 43.4648 25.6559L43.335 26.218L43.8911 26.3847C43.9529 26.4033 44.058 26.428 44.2495 26.4589C44.6635 26.5083 45.0899 26.465 45.4854 26.428C45.8376 26.3971 46.3257 26.3539 46.4184 26.4712C46.4308 26.4836 46.4864 26.5762 46.3752 26.8727C46.2886 27.1197 46.2145 27.373 46.1403 27.6077C45.9735 28.1697 45.8128 28.7009 45.5842 28.7935C45.5039 28.8244 45.3927 28.8059 45.2567 28.7318C44.9416 28.5588 44.6017 28.46 44.3731 28.3921C44.3113 28.3735 44.231 28.3488 44.163 28.3241L45.7634 26.7924L43.5142 27.3544C43.3845 27.3853 43.2547 27.4286 43.1126 27.478C42.9087 27.5459 42.3834 27.725 42.2537 27.6324C42.1486 27.5583 42.1486 27.1197 42.1486 26.8294V26.7615C42.1486 26.3168 42.1486 25.9524 42.0621 25.7053L41.8706 25.1186L41.2774 25.3101C41.0117 25.4027 40.6656 25.6312 40.2331 26.0203C39.5719 26.6009 38.8984 26.8789 38.2311 27.1444C37.3722 27.4841 36.5565 27.8115 36.1302 28.8306C35.4814 30.3562 33.6585 32.0608 32.0829 32.0608C31.743 32.0608 31.4032 32.0855 31.0757 32.1102L30.9644 32.1226C29.5556 32.2399 29.0551 32.1535 28.8574 31.4123C28.4557 29.9423 28.4804 28.2994 28.7894 28.2006C29.2034 28.0585 29.9758 27.4286 30.3404 26.6009C30.6308 25.9401 30.6308 25.2483 30.3404 24.5936C29.9264 23.6672 29.2466 23.4325 28.6905 23.241C28.1097 23.0433 27.7513 22.8889 27.6154 22.2281C27.2508 20.4431 26.0273 18.9608 25.0387 18.4605L24.9583 18.4234C24.4352 18.164 24.1345 17.5876 24.0562 16.694L24.0438 16.5643C23.9759 15.8232 23.3827 14.9832 22.4187 14.2667C21.4795 13.5626 20.1077 12.9388 19.1562 13.1303C18.3652 13.2847 15.2015 13.5688 12.458 13.6306C7.26755 13.7417 6.53223 13.0809 6.42719 12.8771C6.29125 12.5991 5.84017 11.9815 4.60435 12.1977C3.33145 12.4447 1.82993 13.5812 1.72488 14.7361C1.68163 15.2797 1.47154 15.9652 1.25527 16.6817L1.23673 16.7496C0.798015 18.1825 0.297507 19.8008 0.921597 20.8075C1.32942 21.4807 2.05855 22.2342 2.70118 22.8951C3.44885 23.6672 4.21506 24.4639 4.32629 24.9395C4.39426 25.2607 4.351 25.6868 4.30775 26.1315C4.22742 26.9344 4.13474 27.8547 4.87005 28.2253C5.37674 28.4785 5.67333 30.0597 5.40145 31.0479C5.36438 31.1714 5.23462 31.5605 4.96892 31.5482C4.56109 31.5605 4.27068 31.7829 4.15327 32.1905C3.94936 32.9564 4.48077 34.0928 5.89578 34.7908C6.19238 34.939 6.45808 35.0687 6.69289 35.1922C7.15014 35.4208 7.55797 35.6246 7.81749 35.7234L8.65167 36.0322V35.1428C8.65167 35.0934 8.64549 35.0502 8.63931 34.9884C8.62077 34.7969 8.64549 34.5561 8.88647 34.4758C9.17071 34.3708 9.76391 34.5437 10.1841 35.2108C10.2521 35.3281 10.3324 35.4455 10.4127 35.569L10.5981 35.8593L10.7958 35.9334C10.8453 35.9519 10.8947 35.9705 10.9441 35.9952L11.3458 37.1996C11.4261 37.4404 11.4446 37.6319 11.4014 37.7863C11.3643 37.916 11.2593 38.021 11.0801 38.1013C10.802 38.2248 10.5796 38.3607 10.3942 38.4719C9.85042 38.7992 9.78244 38.8363 9.33137 38.2001L8.70728 37.3169L8.26238 38.3051C8.21913 38.4039 8.17588 38.5213 8.13262 38.6325L8.07083 38.7869C7.64447 39.8924 7.29226 40.473 6.67435 40.3804C5.80928 40.2445 5.11104 40.7757 4.6476 41.1215C4.4993 41.2265 4.25214 41.4118 4.17799 41.4242C4.15945 41.3995 4.09766 41.2945 4.07912 40.8313C4.04823 40.0407 4.38808 39.491 4.66614 39.0463C4.93184 38.6386 4.96892 38.4966 4.98127 38.4286L5.05542 38.0951L4.81444 37.8543C4.67232 37.7122 4.43751 37.5887 4.07912 37.4713C3.27584 37.1996 2.98542 36.829 2.76297 36.5449L2.41076 36.0693L1.92261 36.3966C1.85464 36.4399 1.74342 36.5263 1.5704 36.6746C1.47772 36.7672 1.39121 36.8413 1.31706 36.9031L1.17494 37.0328C1.09461 37.1007 1.02046 37.1625 0.958671 37.2181L0.625 37.5269L0.816552 37.9345C0.847448 37.9901 0.872164 38.0581 0.89688 38.1445L0.915418 38.2187C1.07607 38.8116 1.77431 41.2451 2.61467 42.6286C3.49829 44.08 3.98026 45.655 4.56727 48.0699L4.58581 48.1194C5.11721 50.3181 6.22945 54.8948 7.78659 56.5624C8.08937 56.8836 8.44776 57.2233 8.86176 57.6124L8.95444 57.6927C10.6537 59.28 12.9832 61.4479 14.3179 65.1352C14.7937 66.4693 15.047 67.2537 15.2077 67.7416L15.2448 67.8405C15.5105 68.6743 15.5352 68.7237 16.0851 69.6254C16.2829 69.9466 16.5424 70.3666 16.907 70.9719C18.9399 74.3812 25.7863 81.3173 27.5165 82.009C27.6463 82.0584 27.7698 82.1079 27.8811 82.1511C29.2219 82.6699 29.6792 82.849 30.0129 85.4555C30.0994 86.0793 30.1488 86.7463 30.1982 87.4381C30.3836 89.9704 30.5628 92.3606 32.4042 92.9597C32.9294 93.1265 33.4732 93.2809 34.0107 93.423C35.6235 93.8738 37.1497 94.2938 37.7676 95.2264C38.0704 95.6773 38.2558 96.3135 38.4535 96.9991C38.8181 98.2467 39.2259 99.6611 40.4988 100.637C41.815 101.656 42.5688 102.521 43.6069 103.719C44.0827 104.262 44.6203 104.88 45.2938 105.597C45.9797 106.338 46.7397 107.017 47.4132 107.61C48.9148 108.938 50.3298 110.198 50.5461 111.674C50.7191 112.823 51.3123 113.786 52.2144 114.392C53.2958 115.108 54.7231 115.269 56.3359 114.849C57.0774 114.657 57.7818 114.497 58.4615 114.342L58.548 114.324C60.7787 113.811 62.5397 113.41 63.2874 112.483C63.6581 112.032 63.7323 111.6 63.7817 111.328C63.7941 111.248 63.825 111.075 63.8744 111.032C63.9424 110.995 64.2142 111.038 65.1226 111.446C65.7281 111.724 66.346 111.958 66.9578 112.193C67.6066 112.446 68.2801 112.706 68.4964 112.872C68.4222 112.909 68.2677 112.965 67.9588 113.021C67.2358 113.156 66.5005 113.126 65.8455 113.101C64.6653 113.051 63.5593 113.008 62.8054 113.916C62.3914 114.404 61.6623 114.713 61.1185 114.935L59.4996 115.658L61.4954 116.22C61.8662 116.313 62.2369 116.405 62.6077 116.51C64.8569 117.103 67.174 117.715 69.8805 116.702C72.5252 115.713 77.6785 113.99 80.2305 113.817C80.6816 113.786 81.6085 113.7 82.8196 113.576C87.9297 113.088 98.5639 112.069 101.678 112.767C102.834 113.033 104.545 113.379 106.195 113.712C110.564 114.602 116.545 115.806 119.289 116.763C121.334 117.474 122.471 118.635 123.398 119.592C124.158 120.37 124.813 121.044 125.771 121.26C127.754 121.68 128.088 121.877 128.749 123.002L128.805 123.1C129.645 124.527 130.634 125.633 135.039 125.836C138.166 125.985 142.09 127.906 144.951 129.308C146.347 129.993 147.663 130.636 148.497 130.864C149.678 131.185 152.761 132.847 155.48 134.31C157.284 135.28 158.909 136.151 160.293 136.843L160.164 137.244L160.652 137.479L162.017 138.059L162.147 137.72C162.629 137.924 163.012 138.072 163.315 138.158C164.872 138.628 169.611 140.048 170.254 142.537C170.804 144.662 172.343 146.466 174.592 147.633C175.228 147.966 176.038 148.263 176.897 148.578C178.559 149.189 180.443 149.887 180.616 150.764C180.734 151.357 181.586 152.228 184.108 154.563L184.225 154.674C186.493 156.774 189.323 159.38 189.52 160.684C189.761 162.289 191.127 162.79 192.709 163.37C193.617 163.704 194.754 164.118 195.811 164.84C197.671 166.113 201.693 169.398 207.767 174.605C208.805 175.494 210.029 176.816 211.129 178.008L211.203 178.088C212.21 179.182 213.168 180.213 213.829 180.732C214.169 181.004 214.546 181.232 214.966 181.473C216.146 182.177 217.487 182.968 217.92 185.21C218.352 187.452 219.261 188.471 220.33 189.663C220.744 190.126 221.207 190.645 221.677 191.281C222.115 191.862 222.492 192.436 222.912 193.079L223.382 193.783H223.376L223.648 194.178C224.457 195.339 225.186 196.105 226.082 196.105C227.448 196.105 228.634 196.704 230.618 198.39C231.143 198.841 231.841 199.385 232.558 199.94L232.62 199.99C234.653 201.577 237.186 203.554 238.391 205.283C240.177 207.846 243.297 212.837 244.508 215.542C245.849 218.531 246.368 222.083 245.614 223.139C245.349 223.528 245.058 223.843 244.712 224.214C244.07 224.905 243.458 225.56 243.248 226.653C243.137 227.228 243.242 227.759 243.334 228.234C243.507 229.124 243.551 229.605 242.574 230.001C242.185 230.149 241.876 230.31 241.666 230.476L240.659 231.242L241.882 231.563C242.074 231.613 242.284 231.638 242.506 231.638C243.371 231.638 244.521 232.644 245.652 233.632C246.449 234.33 247.067 235.732 246.992 236.69C246.968 237.06 246.838 237.32 246.628 237.462C246.245 237.703 245.998 238.271 245.577 239.463C244.885 241.396 244.372 242.329 243.446 242.032C240.467 241.075 238.107 241.106 236.618 242.125C236.296 242.347 236.024 242.551 235.784 242.73L235.666 242.817C234.671 243.564 234.214 243.904 232.385 243.848C231.199 243.848 230.71 244.923 230.148 246.177C229.506 247.61 228.77 249.234 226.811 249.913C225.977 250.204 225.075 250.451 224.259 250.667C221.139 251.519 218.192 252.328 218.501 255.244C218.89 258.956 222.844 260.994 225.236 261.408L225.971 261.537C232.929 262.785 238.669 263.415 243.149 263.415C246.152 263.415 248.593 263.131 250.453 262.569C258.714 260.061 262.99 257.961 264.961 252.81C265.876 250.438 267.019 249.401 267.699 248.777C268.156 248.369 268.483 248.073 268.502 247.628C268.514 247.325 268.397 246.912 267.476 245.954L266.84 245.287C265.929 244.332 265.355 243.482 265.116 242.736C265.011 242.403 264.881 241.995 264.671 241.433C264.232 240.198 264.022 238.178 263.843 236.393L263.83 236.301C263.701 234.936 263.552 233.552 263.342 232.947L262.965 231.854L262.267 232.78C261.334 234.015 260.722 238.394 261.433 240.266C262.533 243.101 262.341 243.817 262.131 243.99C262.045 244.058 261.767 244.169 260.932 243.657C259.95 243.058 258.893 242.749 257.96 242.483C256.28 241.995 254.957 241.612 254.383 239.908C254.16 239.228 254.012 238.629 253.882 238.104L253.864 238.036C253.48 236.443 253.227 235.387 251.25 234.806C250.712 234.645 250.354 234.367 250.156 233.947C249.619 232.799 250.428 230.903 250.916 229.754L250.947 229.692C251.355 228.735 253.196 226.066 255.118 224.584L255.526 224.275H255.532L255.822 224.102C256.354 223.781 256.848 223.614 257.25 223.614C259.703 223.614 262.749 223.614 264.418 221.644C266.098 219.655 268.44 218.939 270.504 218.5L270.788 218.445C273.353 217.901 277.233 217.08 277.604 214.832C277.789 213.714 278.036 211.299 278.123 209.174C278.228 206.444 278.073 204.826 277.653 204.375L277.573 204.295L277.474 204.239C277.406 204.208 277.332 204.171 277.264 204.14L277.177 204.103C276.782 203.918 276.553 203.801 276.473 203.566C276.362 203.214 276.603 202.504 277.214 201.398C277.783 200.379 277.808 199.798 277.789 199.335C277.783 199.162 277.783 199.119 277.783 199.119C277.937 198.983 278.753 198.835 279.698 198.656C281.472 198.322 282.38 197.291 283.103 196.228L283.647 195.419H283.628L283.635 195.407C284.228 194.487 284.796 193.678 285.748 193.159C286.984 192.492 288.065 191.09 289.122 189.731C290.209 188.317 291.241 186.982 292.143 186.982C293.262 186.982 294.3 185.902 295.517 184.635C296.543 183.573 297.704 182.369 299.187 181.479C300.639 180.615 302.265 179.151 303.834 177.743L303.89 177.693C305.793 175.982 307.597 174.364 308.493 174.364C309.309 174.364 309.853 174.136 310.446 173.895C311.101 173.617 311.78 173.339 312.992 173.271L313.288 173.259V173.277L313.807 173.259C314.963 173.222 315.939 172.999 316.81 172.808C317.984 172.536 319.004 172.307 320.295 172.462C325.325 173.055 328.266 173.135 329.045 172.697L329.385 172.48L329.366 172.097C329.564 171.857 330.88 171.857 331.93 171.863C333.63 171.863 335.551 171.857 336.633 171.196C337.38 170.745 338.264 169.886 339.234 168.941C340.952 167.274 342.905 165.384 344.82 165.019C345.722 164.846 347.026 164.815 348.293 164.828H349.479C353.347 164.865 356.153 164.803 357.191 163.716C357.815 163.068 358.414 162.753 358.896 162.499C359.798 162.036 360.163 161.696 359.638 160.566C359.39 160.029 359.576 159.739 360.503 159.22C360.972 158.954 361.448 158.689 361.547 158.238C361.615 157.96 361.535 157.651 361.3 157.324C360.379 156.008 359.78 153.846 360.089 152.957C360.163 152.728 360.274 152.691 360.311 152.679C361.189 152.413 365.922 150.35 366.503 149.554L366.583 149.412C366.669 149.183 367.516 148.88 368.276 148.813C368.721 148.763 370.21 148.664 370.729 149.523C371.291 150.462 372.126 151.024 372.799 150.919C373.232 150.857 373.547 150.542 373.67 150.042C373.695 149.943 373.751 149.875 373.831 149.838C374.362 149.578 375.858 150.295 377.174 150.919C377.557 151.104 377.922 151.277 378.268 151.431C378.632 151.592 378.997 151.808 379.429 152.061C381.061 153.031 383.094 154.248 386.776 152.376C388.55 151.475 390.113 150.95 391.417 150.517C393.369 149.863 394.55 149.467 394.55 148.318C394.55 146.601 395.674 142.747 397.429 141.87C399.308 140.932 401.995 138.029 401.995 136.942C401.995 136.695 401.927 136.466 401.872 136.281C401.767 135.947 401.73 135.774 401.835 135.595C402.02 135.268 402.737 134.953 403.954 134.662C407.075 133.915 410.294 132.871 410.541 130.759C410.609 130.154 410.788 130.104 411.604 130.141C412.463 130.185 413.773 130.24 415.157 128.69C415.886 127.875 416.949 126.757 417.913 125.75C420.446 123.088 423.598 119.784 424.747 117.857L424.926 117.554C426.168 115.466 427.75 112.811 427.75 109.932C427.75 108.932 427.558 107.907 427.095 106.863ZM161.671 137.257L161.356 137.127L161.288 137.096C161.171 137.04 161.047 136.985 160.917 136.923C160.936 136.88 160.992 136.75 161.072 136.54C161.338 136.664 161.585 136.781 161.82 136.892C161.739 137.096 161.684 137.22 161.671 137.257Z" stroke="#F3F3F3" stroke-width="3" stroke-linejoin="round" mask="url(#path-11-inside-1_2576_3)"/>
<path d="M371.732 215.485C368.202 216.539 362.907 215.046 360.701 214.168C355.847 214.168 352.317 221.634 351.435 224.708C350.553 227.782 344.816 227.782 347.905 228.661C350.994 229.539 345.699 231.296 347.905 232.174C349.67 232.877 349.964 234.663 349.229 235.688C347.653 237.883 350.994 236.127 354.965 238.323C358.936 240.518 354.524 242.714 357.171 242.714C359.818 242.714 365.555 245.349 367.32 247.984C369.084 250.619 368.202 251.937 371.732 251.498C375.262 251.059 380.998 254.572 383.645 256.329C386.293 258.085 385.852 255.889 387.616 255.45C389.381 255.011 390.264 253.694 390.705 249.302C391.146 244.91 396 242.714 396 240.079C396 237.444 388.94 229.1 387.175 227.782C385.41 226.465 383.645 221.195 382.322 216.803C380.998 212.411 376.144 214.168 371.732 215.485Z" fill="#79ADEE" fill-opacity="0.4" stroke="white"/>
</svg>
