<svg width="156" height="466" viewBox="0 0 156 466" fill="none" xmlns="http://www.w3.org/2000/svg">
<g filter="url(#filter0_d_191_2)">
<path d="M78.375 38C78.375 37.7929 78.2071 37.625 78 37.625C77.7929 37.625 77.625 37.7929 77.625 38L78.375 38ZM78 38L77.625 38L77.625 426L78 426L78.375 426L78.375 38L78 38Z" fill="#80ECB6"/>
</g>
<g filter="url(#filter1_d_191_2)">
<path d="M78 88L118 88" stroke="#80ECB6" stroke-width="0.75"/>
</g>
<g filter="url(#filter2_d_191_2)">
<path d="M78 37.625C78.2071 37.625 78.375 37.7929 78.375 38C78.375 38.2071 78.2071 38.375 78 38.375L78 37.625ZM78 38L78 38.375L38 38.375L38 38L38 37.625L78 37.625L78 38Z" fill="#80ECB6"/>
</g>
<g filter="url(#filter3_d_191_2)">
<path d="M78 203L118 203" stroke="#80ECB6" stroke-width="0.75"/>
</g>
<g filter="url(#filter4_d_191_2)">
<path d="M78 147.625C78.2071 147.625 78.375 147.793 78.375 148C78.375 148.207 78.2071 148.375 78 148.375L78 147.625ZM78 148L78 148.375L38 148.375L38 148L38 147.625L78 147.625L78 148Z" fill="#80ECB6"/>
</g>
<g filter="url(#filter5_d_191_2)">
<path d="M78 270.625C78.2071 270.625 78.375 270.793 78.375 271C78.375 271.207 78.2071 271.375 78 271.375L78 270.625ZM78 271L78 271.375L38 271.375L38 271L38 270.625L78 270.625L78 271Z" fill="#80ECB6"/>
</g>
<g filter="url(#filter6_d_191_2)">
<path d="M78 380.625C78.2071 380.625 78.375 380.793 78.375 381C78.375 381.207 78.2071 381.375 78 381.375L78 380.625ZM78 381L78 381.375L38 381.375L38 381L38 380.625L78 380.625L78 381Z" fill="#80ECB6"/>
</g>
<g filter="url(#filter7_d_191_2)">
<path d="M78 317L118 317" stroke="#80ECB6" stroke-width="0.75"/>
</g>
<g filter="url(#filter8_d_191_2)">
<path d="M118 426L114.25 428.165L114.25 423.835L118 426ZM78 426L78 425.625L114.625 425.625L114.625 426L114.625 426.375L78 426.375L78 426Z" fill="#80ECB6"/>
</g>
<defs>
<filter id="filter0_d_191_2" x="40.125" y="0.125" width="75.75" height="463.375" filterUnits="userSpaceOnUse" color-interpolation-filters="sRGB">
<feFlood flood-opacity="0" result="BackgroundImageFix"/>
<feColorMatrix in="SourceAlpha" type="matrix" values="0 0 0 0 0 0 0 0 0 0 0 0 0 0 0 0 0 0 127 0" result="hardAlpha"/>
<feOffset/>
<feGaussianBlur stdDeviation="18.75"/>
<feComposite in2="hardAlpha" operator="out"/>
<feColorMatrix type="matrix" values="0 0 0 0 0.819608 0 0 0 0 0.972549 0 0 0 0 0.00392157 0 0 0 1 0"/>
<feBlend mode="normal" in2="BackgroundImageFix" result="effect1_dropShadow_191_2"/>
<feBlend mode="normal" in="SourceGraphic" in2="effect1_dropShadow_191_2" result="shape"/>
</filter>
<filter id="filter1_d_191_2" x="40.5" y="50.125" width="115" height="75.75" filterUnits="userSpaceOnUse" color-interpolation-filters="sRGB">
<feFlood flood-opacity="0" result="BackgroundImageFix"/>
<feColorMatrix in="SourceAlpha" type="matrix" values="0 0 0 0 0 0 0 0 0 0 0 0 0 0 0 0 0 0 127 0" result="hardAlpha"/>
<feOffset/>
<feGaussianBlur stdDeviation="18.75"/>
<feComposite in2="hardAlpha" operator="out"/>
<feColorMatrix type="matrix" values="0 0 0 0 0.819608 0 0 0 0 0.972549 0 0 0 0 0.00392157 0 0 0 1 0"/>
<feBlend mode="normal" in2="BackgroundImageFix" result="effect1_dropShadow_191_2"/>
<feBlend mode="normal" in="SourceGraphic" in2="effect1_dropShadow_191_2" result="shape"/>
</filter>
<filter id="filter2_d_191_2" x="0.5" y="0.125" width="115.375" height="75.75" filterUnits="userSpaceOnUse" color-interpolation-filters="sRGB">
<feFlood flood-opacity="0" result="BackgroundImageFix"/>
<feColorMatrix in="SourceAlpha" type="matrix" values="0 0 0 0 0 0 0 0 0 0 0 0 0 0 0 0 0 0 127 0" result="hardAlpha"/>
<feOffset/>
<feGaussianBlur stdDeviation="18.75"/>
<feComposite in2="hardAlpha" operator="out"/>
<feColorMatrix type="matrix" values="0 0 0 0 0.819608 0 0 0 0 0.972549 0 0 0 0 0.00392157 0 0 0 1 0"/>
<feBlend mode="normal" in2="BackgroundImageFix" result="effect1_dropShadow_191_2"/>
<feBlend mode="normal" in="SourceGraphic" in2="effect1_dropShadow_191_2" result="shape"/>
</filter>
<filter id="filter3_d_191_2" x="40.5" y="165.125" width="115" height="75.75" filterUnits="userSpaceOnUse" color-interpolation-filters="sRGB">
<feFlood flood-opacity="0" result="BackgroundImageFix"/>
<feColorMatrix in="SourceAlpha" type="matrix" values="0 0 0 0 0 0 0 0 0 0 0 0 0 0 0 0 0 0 127 0" result="hardAlpha"/>
<feOffset/>
<feGaussianBlur stdDeviation="18.75"/>
<feComposite in2="hardAlpha" operator="out"/>
<feColorMatrix type="matrix" values="0 0 0 0 0.819608 0 0 0 0 0.972549 0 0 0 0 0.00392157 0 0 0 1 0"/>
<feBlend mode="normal" in2="BackgroundImageFix" result="effect1_dropShadow_191_2"/>
<feBlend mode="normal" in="SourceGraphic" in2="effect1_dropShadow_191_2" result="shape"/>
</filter>
<filter id="filter4_d_191_2" x="0.5" y="110.125" width="115.375" height="75.75" filterUnits="userSpaceOnUse" color-interpolation-filters="sRGB">
<feFlood flood-opacity="0" result="BackgroundImageFix"/>
<feColorMatrix in="SourceAlpha" type="matrix" values="0 0 0 0 0 0 0 0 0 0 0 0 0 0 0 0 0 0 127 0" result="hardAlpha"/>
<feOffset/>
<feGaussianBlur stdDeviation="18.75"/>
<feComposite in2="hardAlpha" operator="out"/>
<feColorMatrix type="matrix" values="0 0 0 0 0.819608 0 0 0 0 0.972549 0 0 0 0 0.00392157 0 0 0 1 0"/>
<feBlend mode="normal" in2="BackgroundImageFix" result="effect1_dropShadow_191_2"/>
<feBlend mode="normal" in="SourceGraphic" in2="effect1_dropShadow_191_2" result="shape"/>
</filter>
<filter id="filter5_d_191_2" x="0.5" y="233.125" width="115.375" height="75.75" filterUnits="userSpaceOnUse" color-interpolation-filters="sRGB">
<feFlood flood-opacity="0" result="BackgroundImageFix"/>
<feColorMatrix in="SourceAlpha" type="matrix" values="0 0 0 0 0 0 0 0 0 0 0 0 0 0 0 0 0 0 127 0" result="hardAlpha"/>
<feOffset/>
<feGaussianBlur stdDeviation="18.75"/>
<feComposite in2="hardAlpha" operator="out"/>
<feColorMatrix type="matrix" values="0 0 0 0 0.819608 0 0 0 0 0.972549 0 0 0 0 0.00392157 0 0 0 1 0"/>
<feBlend mode="normal" in2="BackgroundImageFix" result="effect1_dropShadow_191_2"/>
<feBlend mode="normal" in="SourceGraphic" in2="effect1_dropShadow_191_2" result="shape"/>
</filter>
<filter id="filter6_d_191_2" x="0.5" y="343.125" width="115.375" height="75.75" filterUnits="userSpaceOnUse" color-interpolation-filters="sRGB">
<feFlood flood-opacity="0" result="BackgroundImageFix"/>
<feColorMatrix in="SourceAlpha" type="matrix" values="0 0 0 0 0 0 0 0 0 0 0 0 0 0 0 0 0 0 127 0" result="hardAlpha"/>
<feOffset/>
<feGaussianBlur stdDeviation="18.75"/>
<feComposite in2="hardAlpha" operator="out"/>
<feColorMatrix type="matrix" values="0 0 0 0 0.819608 0 0 0 0 0.972549 0 0 0 0 0.00392157 0 0 0 1 0"/>
<feBlend mode="normal" in2="BackgroundImageFix" result="effect1_dropShadow_191_2"/>
<feBlend mode="normal" in="SourceGraphic" in2="effect1_dropShadow_191_2" result="shape"/>
</filter>
<filter id="filter7_d_191_2" x="40.5" y="279.125" width="115" height="75.75" filterUnits="userSpaceOnUse" color-interpolation-filters="sRGB">
<feFlood flood-opacity="0" result="BackgroundImageFix"/>
<feColorMatrix in="SourceAlpha" type="matrix" values="0 0 0 0 0 0 0 0 0 0 0 0 0 0 0 0 0 0 127 0" result="hardAlpha"/>
<feOffset/>
<feGaussianBlur stdDeviation="18.75"/>
<feComposite in2="hardAlpha" operator="out"/>
<feColorMatrix type="matrix" values="0 0 0 0 0.819608 0 0 0 0 0.972549 0 0 0 0 0.00392157 0 0 0 1 0"/>
<feBlend mode="normal" in2="BackgroundImageFix" result="effect1_dropShadow_191_2"/>
<feBlend mode="normal" in="SourceGraphic" in2="effect1_dropShadow_191_2" result="shape"/>
</filter>
<filter id="filter8_d_191_2" x="40.5" y="386.334" width="115" height="79.332" filterUnits="userSpaceOnUse" color-interpolation-filters="sRGB">
<feFlood flood-opacity="0" result="BackgroundImageFix"/>
<feColorMatrix in="SourceAlpha" type="matrix" values="0 0 0 0 0 0 0 0 0 0 0 0 0 0 0 0 0 0 127 0" result="hardAlpha"/>
<feOffset/>
<feGaussianBlur stdDeviation="18.75"/>
<feComposite in2="hardAlpha" operator="out"/>
<feColorMatrix type="matrix" values="0 0 0 0 0.819608 0 0 0 0 0.972549 0 0 0 0 0.00392157 0 0 0 1 0"/>
<feBlend mode="normal" in2="BackgroundImageFix" result="effect1_dropShadow_191_2"/>
<feBlend mode="normal" in="SourceGraphic" in2="effect1_dropShadow_191_2" result="shape"/>
</filter>
</defs>
</svg>
